<mxfile host="Electron" agent="Mozilla/5.0 (Windows NT 10.0; Win64; x64) AppleWebKit/537.36 (KHTML, like Gecko) draw.io/26.0.16 Chrome/132.0.6834.196 Electron/34.2.0 Safari/537.36" version="26.0.16">
  <diagram name="Page-1" id="3N3XoiOE5d3ApMTTlAXL">
    <mxGraphModel dx="2050" dy="621" grid="1" gridSize="10" guides="1" tooltips="1" connect="1" arrows="1" fold="1" page="1" pageScale="1" pageWidth="1000" pageHeight="1100" math="0" shadow="0">
      <root>
        <mxCell id="0" />
        <mxCell id="1" parent="0" />
        <mxCell id="tSxqBIP_RXEL2YwwEnVL-1" value="" style="rounded=0;whiteSpace=wrap;html=1;dashed=1;fontFamily=Times New Roman;fontSize=17;fillColor=none;" parent="1" vertex="1">
          <mxGeometry x="-967" y="114" width="166" height="228" as="geometry" />
        </mxCell>
        <mxCell id="tSxqBIP_RXEL2YwwEnVL-19" style="edgeStyle=none;curved=1;rounded=0;orthogonalLoop=1;jettySize=auto;html=1;entryX=0;entryY=0.5;entryDx=0;entryDy=0;fontSize=17;startSize=8;endSize=8;fontFamily=Times New Roman;" parent="1" source="tSxqBIP_RXEL2YwwEnVL-2" target="tSxqBIP_RXEL2YwwEnVL-3" edge="1">
          <mxGeometry relative="1" as="geometry" />
        </mxCell>
        <mxCell id="tSxqBIP_RXEL2YwwEnVL-2" value="" style="rounded=0;whiteSpace=wrap;html=1;fontFamily=Times New Roman;fontSize=17;" parent="1" vertex="1">
          <mxGeometry x="-947" y="145" width="43" height="157" as="geometry" />
        </mxCell>
        <mxCell id="tSxqBIP_RXEL2YwwEnVL-35" style="edgeStyle=none;curved=1;rounded=0;orthogonalLoop=1;jettySize=auto;html=1;entryX=0;entryY=0.5;entryDx=0;entryDy=0;fontSize=17;startSize=8;endSize=8;fontFamily=Times New Roman;" parent="1" source="tSxqBIP_RXEL2YwwEnVL-3" target="tSxqBIP_RXEL2YwwEnVL-4" edge="1">
          <mxGeometry relative="1" as="geometry" />
        </mxCell>
        <mxCell id="tSxqBIP_RXEL2YwwEnVL-3" value="" style="rounded=0;whiteSpace=wrap;html=1;fontFamily=Times New Roman;fontSize=17;" parent="1" vertex="1">
          <mxGeometry x="-867" y="145" width="42" height="155" as="geometry" />
        </mxCell>
        <mxCell id="tSxqBIP_RXEL2YwwEnVL-4" value="" style="rounded=0;whiteSpace=wrap;html=1;fontFamily=Times New Roman;fontSize=17;" parent="1" vertex="1">
          <mxGeometry x="-753" y="146" width="42" height="155" as="geometry" />
        </mxCell>
        <mxCell id="ZQVwc5i_OZqZIY4co0RB-5" style="edgeStyle=orthogonalEdgeStyle;rounded=0;orthogonalLoop=1;jettySize=auto;html=1;exitX=1;exitY=0.5;exitDx=0;exitDy=0;entryX=0;entryY=0.5;entryDx=0;entryDy=0;fontFamily=Times New Roman;fontSize=17;" parent="1" source="tSxqBIP_RXEL2YwwEnVL-5" target="ZQVwc5i_OZqZIY4co0RB-1" edge="1">
          <mxGeometry relative="1" as="geometry" />
        </mxCell>
        <mxCell id="tSxqBIP_RXEL2YwwEnVL-5" value="" style="rounded=0;whiteSpace=wrap;html=1;fontFamily=Times New Roman;fontSize=17;fillColor=none;" parent="1" vertex="1">
          <mxGeometry x="-560" y="140" width="45" height="160" as="geometry" />
        </mxCell>
        <mxCell id="tSxqBIP_RXEL2YwwEnVL-9" value="&lt;font&gt;Signal Source&lt;/font&gt;" style="text;strokeColor=none;fillColor=none;html=1;align=center;verticalAlign=middle;whiteSpace=wrap;rounded=0;fontSize=17;rotation=-90;fontFamily=Times New Roman;" parent="1" vertex="1">
          <mxGeometry x="-985" y="207.5" width="118" height="30" as="geometry" />
        </mxCell>
        <mxCell id="tSxqBIP_RXEL2YwwEnVL-10" value="&lt;font&gt;Modulation&lt;/font&gt;" style="text;strokeColor=none;fillColor=none;html=1;align=center;verticalAlign=middle;whiteSpace=wrap;rounded=0;fontSize=17;rotation=-90;fontFamily=Times New Roman;" parent="1" vertex="1">
          <mxGeometry x="-905" y="206.5" width="118" height="30" as="geometry" />
        </mxCell>
        <mxCell id="tSxqBIP_RXEL2YwwEnVL-11" value="&lt;font&gt;Transmitter&lt;/font&gt;" style="text;strokeColor=none;fillColor=none;html=1;align=center;verticalAlign=middle;whiteSpace=wrap;rounded=0;fontSize=17;rotation=-90;fontFamily=Times New Roman;" parent="1" vertex="1">
          <mxGeometry x="-793" y="211" width="118" height="30" as="geometry" />
        </mxCell>
        <mxCell id="tSxqBIP_RXEL2YwwEnVL-12" value="&lt;font&gt;Reciever&lt;/font&gt;&lt;div&gt;&lt;font&gt;(RTL-SDR)&lt;/font&gt;&lt;/div&gt;" style="text;strokeColor=none;fillColor=none;html=1;align=center;verticalAlign=middle;whiteSpace=wrap;rounded=0;fontSize=17;rotation=-90;fontFamily=Times New Roman;" parent="1" vertex="1">
          <mxGeometry x="-591" y="208.25" width="110" height="24.5" as="geometry" />
        </mxCell>
        <mxCell id="tSxqBIP_RXEL2YwwEnVL-21" style="edgeStyle=none;curved=1;rounded=0;orthogonalLoop=1;jettySize=auto;html=1;entryX=1;entryY=0.5;entryDx=0;entryDy=0;fontSize=17;startSize=8;endSize=8;fontFamily=Times New Roman;" parent="1" source="tSxqBIP_RXEL2YwwEnVL-5" target="tSxqBIP_RXEL2YwwEnVL-5" edge="1">
          <mxGeometry relative="1" as="geometry" />
        </mxCell>
        <mxCell id="tSxqBIP_RXEL2YwwEnVL-27" style="edgeStyle=none;curved=1;rounded=0;orthogonalLoop=1;jettySize=auto;html=1;exitX=0;exitY=0.25;exitDx=0;exitDy=0;fontSize=17;startSize=8;endSize=8;fontFamily=Times New Roman;" parent="1" edge="1">
          <mxGeometry relative="1" as="geometry">
            <mxPoint x="-474" y="175" as="sourcePoint" />
            <mxPoint x="-474" y="175" as="targetPoint" />
          </mxGeometry>
        </mxCell>
        <mxCell id="tSxqBIP_RXEL2YwwEnVL-40" value="" style="edgeStyle=segmentEdgeStyle;endArrow=ERmany;html=1;curved=0;rounded=0;endSize=8;startSize=8;sourcePerimeterSpacing=0;targetPerimeterSpacing=0;fontSize=17;exitX=1;exitY=0.5;exitDx=0;exitDy=0;endFill=0;fontFamily=Times New Roman;" parent="1" source="tSxqBIP_RXEL2YwwEnVL-4" edge="1">
          <mxGeometry width="140" relative="1" as="geometry">
            <mxPoint x="-377" y="148" as="sourcePoint" />
            <mxPoint x="-660" y="175" as="targetPoint" />
            <Array as="points">
              <mxPoint x="-660" y="224" />
            </Array>
          </mxGeometry>
        </mxCell>
        <mxCell id="tSxqBIP_RXEL2YwwEnVL-41" value="" style="edgeStyle=segmentEdgeStyle;endArrow=ERmany;html=1;curved=0;rounded=0;endSize=8;startSize=8;sourcePerimeterSpacing=0;targetPerimeterSpacing=0;fontSize=17;exitX=0;exitY=0.5;exitDx=0;exitDy=0;endFill=0;fontFamily=Times New Roman;" parent="1" source="tSxqBIP_RXEL2YwwEnVL-5" edge="1">
          <mxGeometry width="140" relative="1" as="geometry">
            <mxPoint x="-701" y="234" as="sourcePoint" />
            <mxPoint x="-611" y="178" as="targetPoint" />
            <Array as="points">
              <mxPoint x="-611" y="222" />
            </Array>
          </mxGeometry>
        </mxCell>
        <mxCell id="e7OIqNbBEOPiOvRn1Wt2-18" value="&lt;font&gt;Antenna&lt;/font&gt;" style="text;strokeColor=none;fillColor=none;html=1;align=center;verticalAlign=middle;whiteSpace=wrap;rounded=0;fontSize=17;rotation=0;fontFamily=Times New Roman;" parent="1" vertex="1">
          <mxGeometry x="-700" y="230" width="118" height="30" as="geometry" />
        </mxCell>
        <mxCell id="e7OIqNbBEOPiOvRn1Wt2-19" value="&lt;font&gt;Tx&lt;/font&gt;" style="text;strokeColor=none;fillColor=none;html=1;align=center;verticalAlign=middle;whiteSpace=wrap;rounded=0;fontSize=17;rotation=0;fontFamily=Times New Roman;" parent="1" vertex="1">
          <mxGeometry x="-735" y="154" width="118" height="30" as="geometry" />
        </mxCell>
        <mxCell id="e7OIqNbBEOPiOvRn1Wt2-20" value="&lt;font&gt;Rx&lt;/font&gt;" style="text;strokeColor=none;fillColor=none;html=1;align=center;verticalAlign=middle;whiteSpace=wrap;rounded=0;fontSize=17;rotation=0;fontFamily=Times New Roman;" parent="1" vertex="1">
          <mxGeometry x="-656" y="154" width="118" height="30" as="geometry" />
        </mxCell>
        <mxCell id="ZQVwc5i_OZqZIY4co0RB-12" style="edgeStyle=orthogonalEdgeStyle;rounded=0;orthogonalLoop=1;jettySize=auto;html=1;exitX=1;exitY=0.5;exitDx=0;exitDy=0;entryX=0;entryY=0.5;entryDx=0;entryDy=0;fontFamily=Times New Roman;fontSize=17;" parent="1" source="ZQVwc5i_OZqZIY4co0RB-1" target="ZQVwc5i_OZqZIY4co0RB-9" edge="1">
          <mxGeometry relative="1" as="geometry" />
        </mxCell>
        <mxCell id="ZQVwc5i_OZqZIY4co0RB-1" value="&lt;div&gt;&lt;span style=&quot;background-color: transparent; color: light-dark(rgb(0, 0, 0), rgb(255, 255, 255));&quot;&gt;Modulation&amp;nbsp;&lt;/span&gt;&lt;br&gt;&lt;/div&gt;&lt;div&gt;&lt;font&gt;Classification&amp;nbsp;&lt;/font&gt;&lt;div&gt;&lt;font&gt;Network&lt;/font&gt;&lt;/div&gt;&lt;/div&gt;" style="rounded=0;whiteSpace=wrap;html=1;fontFamily=Times New Roman;fontSize=17;fillColor=none;labelPosition=center;verticalLabelPosition=middle;align=center;verticalAlign=middle;" parent="1" vertex="1">
          <mxGeometry x="-460" y="140" width="130" height="159" as="geometry" />
        </mxCell>
        <mxCell id="ZQVwc5i_OZqZIY4co0RB-9" value="" style="rounded=0;whiteSpace=wrap;html=1;fillColor=none;fontFamily=Times New Roman;fontSize=17;" parent="1" vertex="1">
          <mxGeometry x="-272.5" y="139.5" width="132.5" height="160" as="geometry" />
        </mxCell>
        <mxCell id="e7OIqNbBEOPiOvRn1Wt2-14" value="&lt;font&gt;Speaker (FM signal)&lt;/font&gt;" style="text;strokeColor=none;fillColor=none;html=1;align=center;verticalAlign=middle;whiteSpace=wrap;rounded=0;fontSize=17;rotation=0;fontFamily=Times New Roman;container=0;fontStyle=0" parent="1" vertex="1">
          <mxGeometry x="-270" y="187.5" width="130" height="22.5" as="geometry" />
        </mxCell>
        <mxCell id="e7OIqNbBEOPiOvRn1Wt2-17" value="Spectrum Plot" style="text;strokeColor=none;fillColor=none;html=1;align=center;verticalAlign=middle;whiteSpace=wrap;rounded=0;fontSize=17;rotation=0;fontFamily=Times New Roman;container=0;fontStyle=0" parent="1" vertex="1">
          <mxGeometry x="-272.5" y="269" width="130" height="30" as="geometry" />
        </mxCell>
        <mxCell id="ZQVwc5i_OZqZIY4co0RB-8" value="" style="pointerEvents=1;verticalLabelPosition=bottom;shadow=0;dashed=0;align=center;html=1;verticalAlign=top;shape=mxgraph.electrical.electro-mechanical.loudspeaker;fontFamily=Times New Roman;fontSize=17;" parent="1" vertex="1">
          <mxGeometry x="-220.62" y="145" width="28.75" height="36" as="geometry" />
        </mxCell>
        <mxCell id="wYDWd7tRNkPm_lNKTWja-1" value="" style="shape=image;verticalLabelPosition=bottom;labelBackgroundColor=default;verticalAlign=top;aspect=fixed;imageAspect=0;image=data:image/png,iVBORw0KGgoAAAANSUhEUgAAAbAAAAFICAYAAAAxj6teAAAAAXNSR0IArs4c6QAAAARnQU1BAACxjwv8YQUAAAAJcEhZcwAADsMAAA7DAcdvqGQAALBBSURBVHhe7J13mBzFmf+/3T15Z/OupFXOAUkgQAgQIAQYGQz4wAkw5s7mwT6ns405B2zD+WzD2T7wYRuw8TmBOYyNiQYbBCKJoIgSSiiHzXknT4f6/eF661fT27M7u9ogMfV5nnl2tqa7urrqrXorvPWWxhhjUBSMaZowDAOapkHTNPfPiiLCNE3oug7DMNw/KYoMx3FgWRYCgYD7J8UworsDFPlhjCEWi0HpfAW4AjNN0x2sKEIsy1KyMAooBTZAstmsO0hRhDDGYFkWHMdx/6QoQhhjSoGNApqaQhwYlmVB13U1haiAbdvQNA26rvqBxY5t23AcBz6fT7ULI4iqeQOAMYaWlhbRcCmKm56eHqRSKXewogjJZDLo6upyByuGGTUCGyDKiENBKCMOBaGMOEYHNQIbAIwxxONxpbgUAFdgtm27gxVFiG3bag1sFFAKbIBkMhllhagQRhxKgSnAR2BKgY08agpxgJARh1q4V1iWBU3T1BSiQhlxjBKqFR4AjDG0traqEZgCABCLxZQRhwJQRhyjhhqBDZBsNgu/3w8AqqdV5CgjDgWhjDhGBzUCGwCMMSQSCXewokhRRhwKQhlxjA5KgQ2QdDqtphAVAF8DUwpMAWXEMWqoKcQBovaBKQjHccTCvaK4cRwHtm0rI44RRo3ABgAZcUCtfym4EUcmk3EHK4qQdDqtjDhGATUCGyDZbFYt1CoAPoUIQI3AFMqIY5RQI7ABQEYc1HApiptsNqvWwBSAMuIYNZQCGyDKiENBUK9boXAcRx21NAooBTYANE1DdXU1GGPqHKgix3Ec1NfX4+6770Zzc7P7Z0WR4ff7EY1GVed2hFEKbADYto0tW7bg+eefVz3vIsdxHOzatQt/+tOf0NXVpRquIkcZcYwOSoENAMdxsHPnTtx1111qQ3ORwhgTyioYDCIUCqktFQqEQiGUl5crORhhlAIbALquIxaLIRaLqSlEBUzTVCMvBaCMOEYNpcAGgG3byGazqtFSQNM0ZDIZdTq3AlBGHKOGUmADQNd1lJSUiAZLKbLig6YLGWMIBALw+/3QdV3JQpGjjDhGB6XABgBjDLFYDLZtK0FVIJVKiTPBFMWNMuIYHZQCGwCapiEcDkPTNHWgpQKGYcAwjBzDDkVxEgqFUFZWpjozI4xqhQcAY0ws1CrLM4VpmmIEpjo0xY1t28oryyigat0AsG0bmUxG9bYVAD+FVxlxKMCNOJRj55FHKbABoOs6SktLoWmaMqNXwO/3w+fziWNVFMWL3+9HaWmp6tyOMEqBDZDu7m53kKJIoRGYrutqCrHISafT6OzsdAcrhhlV6waAYRgIhULuYEWRouu6mj5UANwrizLiGHmUAhsAjDHhA1EJqsI0TTV1qACkE5kVI4tSYAPAsixlxKEApM6McielgGTgpRhZlAIbAH6/XzhvVY2WQtM0cRqzkofiJhAIKCOOUUApsAHgOI7wQq+mEIsbxhjS6TRM01R7AhXKiGOUUApsADDGhNm0arAUPp9PeeJQAMqIY9RQCmyAqEV7BWEYhhh9qYaruFFGHKODUmADQC3UKmRisZg4XkeNwIob1TaMDkqBDQBd19U+MAXg4QtTjcCKG2XEMTooBTYANE0TRhxKUBXkwFUpL4Uy4hgdlAIbIMFg0B2kKEJoK4VSXgooI45RQymwAUJrHgoFHWyq1sAUyohjdFAKbICQkKoGS2FZlurQKABlxDFqKAU2AGjTqtoHpiCUHCigjDhGDaXACoQxhp07d2LVqlVwHEcdn1HkqGlDhUw6nUZXV5c7WDHMqFa4QBhjaGtrQ0tLi/hfUbwwxsQamEIRDAbFYbeKkUMpsAEQCASE6yBFcUOnMNN0smq4ihtlxDE6KAU2ANS0oUJGTSMqCNu2kU6n3cGKYUa1yANA7f1RyCjlpSACgQDKysqUTIwwSoENAHmqSCkxhWqsFEQqlVJGHKOAUmCDQDVcCpo+lD+K4iUYDKK8vFx1bEcYpcAGgFqsV8goWVAQjDGYpqmOWxphlAIbBKq3rVAyoJCxbRupVModrBhmlAJTKBSKYyQQCKC8vNwdrBhmlAIbADQ9oNY8FMoaVSGTSqXQ3d2tZGKEUQpsACjPCwpCdWIUMuo4ldFBKbABwBhTi7QKQFkhKlwoI47RQSmwAaAaKQVhWZZw6qysUxXKiGN0UApsAFiWhQULFgiPHIrihEZcPp8Puq6rEZgCoVAIVVVVyt3cCKNnMhkw7lnbsiyAnzpMzilN0wQAeF2XyWSEQ1P5XppqsywLjDFks1nYtt0rjK6jZ3iFmaaZEyYP1d1hXtdR49JfmOM4fYZRvOPHj89JF/XE3ffSehm9k3ydO0x+93xh+eLzus4rjDEmytCyLFEOcpj7Otu2CwrLF587jGSnvzDLskRe9hXmda8sY/J1XvdSmFvuBhLGuOJiUvnTde4wktlsNitkyCuM6gqlla6jeOR73WF0r7v888WX4YcwusufwiwuZ+5ydYd5yQSFpdNpMFd5yWHue4cjzEsmKIzyT5adgYbF43G0tLQI2QCXCfk65tEuDjSMyq4vGZPD5LIeSJj8LDnuQsLc8fUXZnvIZ74w9716a2srGGNIJpNIJBIAgObmZjiOg0QiIcJaW1th82FyLBYDYwwtLS2wuRPLnp4eMH7kiOM4SKfT4rrm5mZxb3d3NxzHEddlMhl0d3eDMYb29nbYto1sNouuri4RnxzmOA6am5thmiay2Sw6OzvhOI641zRNdHZ2ivgs3vB1dHSAMYaOjg4R1t7eDsdx0NraikwmA9M00draKtInhwFALBZDIBCAaZro7u4GAHR0dCCTycCyLJFvHR0dSKfTsG1bhHV1dYkCb2lpAWMM3d3dyPBOQL4wujeVSsFxHDQ1NcFxHPT09CCdTov8YIwhFov1CovH46KxoPhisRgSiYSIj8o/mUyK8meMIZFIeIbJcsIYEzLhOA4aGxvBeEPhlqd0Oi3C6H3T6TTi8XhOWCaTQU9PT877ZrNZxGIxQJJFui5fGMmYaZpCdkhmLcsSZSjLmBxGckJh7e3tYLzR6OjoAMF44+KWMcuy0NnZCQDo7OyEaZqwLEvcS9fZti3S2tHRISpve3t7zr0Ol0sAQp7oXgDo7u6GyRskysuuri4RRnIsyxiFkTzZtp0j79RYyDJGjUo+GQMgZIfqBV2XSqVgWZaQO7qOMYampiZxbyKREM8AINond1g8Hs9Ji7t9YpKMucPk9onk0yuM2jaqP3KbRWGMK0V6D8uykE6nRbnSdXLb1tLSImTMK4zasdbWViE71N7J8im3d24Za2tr6xXW3t4uZIdkrKOjIyeMZFEOY4yhs7OzV1hXV5eQJ3rfrq4u0RZRWHd3d68wWe6obGKxGFKplGeYnOfxeByaaZrM5/PB4T1BwzBg2zYMwwB4b0PXdViWlXOUiGEYvcLoOjk+XddFvOCVXY6PniHHV2iYxk9H1nUdtm2L4bv8HoWE9RWfpmmw+Ojyr3/9K1atWoWVK1fijTfeQE1NjbgefB7c5/PBtm1omibiMQwDjnTsBuWR+xl9hXnFB488H0yYV3x+v79XmPte0zRF+VP6TNPsdV2h8VmWBZ1PyUGSMQpjjOWUl1cYXOXq8/l6yWe++Nz3eoVRfM3Nzbj77rvx8MMPY9WqVZg9e7aIm66X7/WSOypX8Hohvy+4PBm8bAwun5QGOT633JEcU3xUNvRODpdZuRzkeyk+hzfM8jvZfIQvxyeXP8VH98pppnJwh3ndKz9jtMPksqE0y/nr8/lgWRay2SzC4bD4DbxsdKnewiVPVIZe5e84johbDpPLMF98+e6Vw+Sydoe5nzGYMFme5DDK3/6u8wqje3UukxojqZKMFDRpQVr6OQf5mnx4xXeiYts2nn76abzwwgt48cUXsWbNGlRVVbkvOyHxKuNCy8yrjEcivkLxeu6xxAd+f2trK+655x48+OCDWLlyJebMmSN+Q57nFgI16PSdOBHjKzSfve490Uin00gmk++ZNuF4h2TrH2qTo3lYU1GY+1MIA7n2RMBxHJSXl+dU4vcC7rIdyLt5Xe+Oy/17X3hd745rIB8v3NcM5kO9Xup5uuMeLPK98vMGy2jGJ//e1+e9gPLEMbKQ7OTWPkWfOI6DZDIJh08rKIoTjU9t0BrRe6URVgweWttSjCxKgQ0Ax3FQVlYm5rIVxQtjDIFAQMzPK4qbYDCI0tJSd7BimFEKrECYZLKqFFhxQ7JAH4XClrZlKEYOpcAGAOOmsmrKSOFwK1vVYCnA98zRlhPFyKEU2ACwLEss1KppI4Xf7xdTiEqRFTeBQABVVVWqczvCKAU2ACy++VUJqQKSNwzaP6MoXtLptDLiGAWUAhsAjuOgoqJCNVaKHDN6NfpSBAIBlJaWKlkYYZQCGwAO90+mKWe+RY/bgEPJQ3FDbYNiZFEKbAAoBaYgyKBHyYEC3ApRGXGMPEqBDZDq6moYhqFM6YscxhjC4TCCwWCv0Zii+AiFQqiurlbLCyOMUmADQPb8rBqs4oZxr/nkrNXtUkpRXCgjjtFB1boBQJ44dO5dWlG8ONyzt9/vB9QaWNETCoUQiUTcwYphRimwAUDrHmqaQEF7vwzpOCFF8UKeONT+0JFFKbABwPgJq0qBKcAbLWqwlEwUN5lMBul02h2sGGaUAisQWveqqamBpmniZGlFceI4DoLBIEKhkJIDBSKRCKqqqtRa6AijcrtAGHfk293djY6ODvzqV7+CaZruyxRFAhlxZLNZ90+KIkQZcYwOSoEViMYPMSwvL0cymcTu3buVAitiGGPw+/3w+/1qBKYQnjgUI4tSYANA3sis1jyKF8aYMOKAWv9ScJQRx8ijFNgACAaDsCxLzHOrhqu4IU8cSg4UmUwGqVTKHawYZpQCGwCmaWLixIlqoVYhjDgCgQDefvttNZ1c5IRCIVRUVLiDFcOMaokHQE9PD5qbm1WvWwEAyGazSCaTuO+++xCPx90/K4oIMuJQ7cLIohRYgZAVIpnRK4e+xQ0ZcRiGgSNHjijPLEVOIBBANBpVCmyEUQqsQGgTMwD4fD73z4oig/YFOo6jjHoUgLQmqhg5lAIbAKlUCplMBlAGHEUPdWhUg6WAMuIYNZQCGwCWZWHixImAct5a9DiOI45TUShKSkpQWVmpOrYjjFJgAyCTyaC1tRVQCqzoYYwhlUqpU3gVAJ+d6ezsdAcrhhmlwAaA4ziora1VHsgVYIwhEAggEAi4f1IUIX6/H5FIRLULI4xSYAVCi/VqoVYBD28ciuKGrJKVPIwsSoENgEAggEQiASgjjqKH8W0VqsFSQB2nMmooBVYgdJDl5MmT1YnMCjDGEI1GEQqF3D8pipBQKITy8nJ3sGKYUQqsQCzLgs/nQ1NTk/iuKF4YY4jH42pbhQJQnjhGDaXACoSc+FZWVsIwDDUCK3IYYwgGgwgGg3AcR3khL3L8fr/yxDEKKAVWAIwxZLNZ6LouzKaVoBY3pLSY8oup4O2BMvAaeZQCKxDGGEpLS5HNZlWjpQD4qFyNvBRQnjhGDaXACoTWvSZNmgSojcxFj+M4iEQiYu+PkofiRnniGB2UAisQ0zQRj8dx+PBh0Viphqu4SSQSSKVSMAwDhmG4f1YUEalUCl1dXe5gxTCjFFiBOI4DwzBQVVUFTdPU1FGRwxhDJBJRnjgUgGTEoRhZlAIrEPLEIf9VFC+GYSAYDKrtFApAMuJQ7cLIohRYATDGYNs2DMNALBZTRhxFDmMMPT096OjoUA2WAuBGHMlk0h2sGGaUAisQ0zShaRomTZoETZ3GXPRYloWqqiqUlpbCtm21L7DICYVCqKiocAcrhhmlwArEcRzhicO2bfh8PqXEihjTNNHd3Q3TNKHrOnRdVaViJpPJKE8co4CqdQVCm1bLy8vVhmYFLMtCSUkJwuGw+ydFEeL3+1FSUuIOVgwzSoEViG3b0HUdjuOIHfdKeRUnjB+lQvKgUMgGXoqRQymwAqEpxFgsJgRVCWtx4jgOLMsCk45UUdPJxY06TmV0UAqsQGiRfurUqeLYBNVoFSe2bSObzWLChAkoKysD1FRy0UNGHKpNGFmUAisQmjJqbGzEN77xDffPiiLCtm34/X5ks1nE43E4joOuri41nVjEpNNpdHZ2uoMVw4xSYAXAGINlWdA0DRUVFTjrrLOUFWIRY9s2MpkMotEo/H4/Ojs78eMf/xiZTEbJRJESCARQUlKiRuIjjFJgBUIbmWlTs1qwLV5o7YtkIpPJYOvWreKkAkXxQQY9qvxHFqXACoTWwNLptNjzo4S1eHEcB9lsVsiDruvKsKeISafTSCaTqk0YYZQCKxDGGHRdx7hx43LClAVaccG4CT1jDNXV1SgpKRGeOJQCK17C4TCqqqrcwYphRimwAiEjjqamJtVQKQAAHR0diMVi0JRrsaInnU4rTxyjgFJgBUIug8iEHmoKsWihUVh5eTlCoZBSYAoEAgFEIhF3sGKYUQqsQBx+Hhitfynfd8WJxo/NoClDMp1XCkzBlHeeEUe1wgVCDVQqlVKCWuQ4jiO8cZBPTKXAiptMJoNUKuUOVgwzSoEVAGMM2WwWmqZhzJgxQnmpRqs4YXwrRU1NjXLmqwC4EYfyxDHyKAVWALZtI5lMIhQKobOzUxlxKABuxFFZWQm/36/kochJpVLKE8cooBRYAaRSKbS2tmLChAmoqqrKmUJUDVdxwhhDWVkZvvjFL6Kurg7JZBLNzc3KnVSREggEEI1GVXswwigFVgCpVAqWZaG0tBQAYBgGkskkWltbxQZnxXsfx3FQX1+PTZs2wTRNBAIBTJ48GeFwGPv378d9992HbDbrvk1RBJBBj5pCHFmUAusHWu+gacNEIgHHcbBr1y48/vjjYhFf8d4nm83iiSeewM033wzLsmCapnApls1m0draqkZgRUomk1GeOEYBpcAKgKYMfT4fampqAD4q6+rqUhaJRUZPT4/obVdVVSEQCIjOjVobLV4ikYjyxDEKKAVWADQ14Pf70d7eDl3X4fP5ALUGVnSQI2cA6O7uFlOGTHIxpSg+yIhDtQcji1JgBUANk67riEaj4n/V4y4+kskkNO55IxKJiBMKoHxjFjXKE8fooBRYAZChhs/nE71v5ZG++GCMIZVK5fi9s21beKJ3uL9MRfFBI3DVoR1ZVG0rAFJguq4jHo8LIVW97eKCFFhPTw/27t0rDHhIgbW0tKC+vl7JRBFimibS6bQ7WDHMKAVWALZtiylDMuJQFCdkaWZZFqqrq+H3++FwP5mbN2/G888/ryxTixDliWN0UAqsAGjNKxAIqN32RYxt20gkEsKAp6urK2ffl/KHV7wkk0nVNowCSoEVAI3AyIhDUXw4joOWlha0tLTAsiyx9mUYBhzu3BfKKrVoISMOVf4ji1JgBSAbcajpoeKEMYbGxkaUl5cjGAyitrYW0WgUuq7D7/eLv4ZhqEasCJHXxRUjh1JgBUBKy+fzqSmiIoQxhvb2dqxevRolJSWIRqM488wzUV1dLaaX586dC/CGTDVixUc6nVaeOEYBpcAKQNd1hMNhGIaBMWPGuH9WFAEHDhzAn//8Z/h8Pui6Dl3XUVZWJja1X3TRRTjjjDOwadMmNDQ0qJF6kRGJRFBZWekOVgwzSoH1g6ZpSKVSME0TJSUlaG5udl+ieI/DuBcWwzBQVlYGxhh8Ph8SiYRYH62srMSKFSvw8ssv45FHHsFtt92Grq4ud1SK9yjpdFp54hgFlALrB8uy0NLSAr/fj0AggJKSEvcliiKAGiafzye2VIRCIei6LqaNAoEAstksNm7ciEcffRTpdFpNKRUJfr9feeIYBZQC6wfTNNHd3Y2qqioYhuH+WVFEBINBlJeXQ5NciJElomEYYk/Yyy+/jHQ6reSliKCOihqBjSxKgRUAbVR1HAeJRML9s6IIYIxhxowZOOOMM0RYOp3udR6c4zjo7u4WZvWK4sCyLGXgNQooBdYPtm3DsizhLmjs2LHuSxTvcWifV11dHSZOnChGYNFoFIyfF+f3+wHp6B15lOZWcor3HqFQCJWVlWrKeIRRCqwfSIH5/X5o3N8d1FRBUZFOp7Fjxw709PSAcf+XPp8P8XgcjG9wp4+b7u5u/PnPf8b27dvdPyneQ9BxKoqRpXeNU+Sg67pQYIwfoQHlyLdoYIzhyJEjePrpp9HZ2YlQKARIWytoZK7x/V+yTDDGUF9fj8ceewz79+9X04rvYQKBAMLhsOrYjjBKgfWDZVk5IzC1WFt8pFIptLa25riOkmVBhsIYP14jk8kgFosJ5eZ1j+K9gyrfkUUpsH6gRoemh9xGHEqRvbchRUQyQHKgaZpw5EsjMNmknv5alqWO2SgCTNNUnjhGAaXA+oHxozPI3924cePg9/sxefJk8btpmli3bh3+/Oc/53gnV5z4aPygSjLkISWlaRpKS0vFIafyb4wxxGIx/OQnP8Gzzz6L5uZmoeRUh+e9STAYRHV1tec6qGL4ULldAIwxGIYBy7LQ0NCAqqoqXH/99TkN1iuvvILf/e53yGQyqhf2HoI6KI7jwOfzwTAMocB6enpEebsVUyqVwk9/+lM8+uij4h7Fe5d0Oo2Ojg53sGKYUQqsH6j3TSMw8kY+depU7Nq1Cw0NDeIaeeOqarDeO9i2jXQ6Lfwggo/MgsFgzshKVmKGYWDmzJlgjImDDt1KTvHegTxxqHo/sigF1g+O4yCbzcLn80GTLM00TcOGDRuwadMmwENhqcbqvUM2mxUKjEZT8qiKpg9pupFxM/tJkyZB0zThfkrx3oXaBsXIohRYP5Bg0nRhLBYTjRQ1bO7rlfJ6b2HbtrA8pLLVNA2ZTEZ8p3C5g1NWVgafz4dAIKA2M7/HMU1TeeIYBZQC6wfGrdBoBFZXVwefz5dzrEYsFsOBAweU4nqP4jgObNsWMqBpGgzDQHl5Ofx+PxKJRM4eL+rwkANo5RPxvU84HEZlZaVqA0YYpcD6gRSYxs2km5qaRINGR2m8/fbbePXVV923Kt4D0Kg7Fov1apxisRgA4Lvf/S4uvPBC6LouZMXn8yEYDMLv9yMYDIqRmeK9STKZVJ44RgGlwPLA+Cm8b775Jpqbm4UHhtLS0pzpIk3T0NHRgc7OTjG1qHhvYVmWMJWnEZimaQgEAohEIvjIRz6C2bNn5xh5OI6D0tJSTJkyBWVlZWhqalJbLN7DkCwoRhalwPJg2zZee+013HLLLdizZw8gGWrIjZnivQ2tdTJuuEHKSy5/CqPrwWVk0qRJuP322zFt2jTcd999ePnllwd0UjON2lSn6PhHkwx4FCOHUmB50DQNtm2jra0tp9GhaaN8yitfuOLERVYisrJKp9PCkMONYRioqqrCxIkTEQwGcfjwYXz1q18V8tMfyWQSzc3NqkE8QTBNUx1gOgooBZYHxhgymQw0TcPy5csxbtw4GIaBsWPHwufzAdx8mkyr6X95MV9x4sEYQ3d3N9auXSs2Kdu2nbOBmUZg5eXlOSd0a5LF6vLly3HOOeeIcI1vfO7LGpEav2w2i+effx7333+/mnY8QQgEAqioqHAHK4YZpcDyoGkaYrEYTj/9dFx99dWora0FADQ1NQmzasuysGHDBvz5z38WPWtaA1GcmDiOgy1btuCOO+5AV1eXOE4nGAyKa6iMOzs7kUwmpbv/QSAQwJIlSzB16lTANRXYXw/93Xffxf/8z//g7bffxoYNG2CapvsSxXFIOp1GZ2enmoEZYVRrmwfHcZBKpbB8+XLMnj1bCGZZWZnoUTuOg4aGBrz99tswTXNA6xuK45fOzk4cPXoUPT09sCwLjDGUlJSIvYC0/hWJRDwtDJnkfkrTNITDYQQCAaCfDo7jONi9ezceeeQRMepTDeKJgd/vRzgcdgcrhpn8tanIsW0bqVQqZ8rQ4Sfzyg0WbV5UDc17Bxp1PfbYY+I7jbip3Km8aVqR0DQN1dXVmDp1KgzDgK7ruOCCCzB37lyAy1BfmKaZM2WpjIVOHKhjqxg5lALLA00hhkIhocDgMuJgjGHt2rVobW2F4zhobGzErl27+p0mUhy/ML7mlUgk8Jvf/AYdHR2Ix+NYtGgRFi1aJBoojXvicK9R6bqOs88+GytWrBDrozNnzsT48eN7jdTcML7nkEZpfV2rOL6wLEt54hgFlALLg6ZpSCQSKCkpEQ2JruuYMGGC6Gkxvlcsk8nA5/Nh165deOSRR3o1aooTB8aPz9E0DalUCs8//zxeeeUVfPSjH8W1116bMyIqKysTe39IJnRdFxuY6Tp52rA/pUQb5JX3jhML8sTRX/kqhhalwPLQ0dGBvXv3oqysLKcxaWxsFNOIsiKjz4YNG7B161YlyCcw2WwW2WwWmUwGa9aswf79+92XAHytTD7gVB6dychy0hc0+kun03jqqaeQzWb7tFpUHD+kUinliWMUUArMA8YY2traEAqFMHv27JwpHVrMdysu8PWNTZs2YefOnarhOYGRNy6nUilxlA4pJirvcDgMv98vwkhRybIBrsAKmRak+zKZDN555x0cPXoUGzduVLJ0AhAIBBAOh3t1XhTDiy5XNEgmv/L/8l85vNDraOFavoe+9xfHcIXJi+leYbZto7S0VLiQIjRpxz01OHKjZXP/iG5B9nrGsaSvr7D+4iMKDZPjI7yuQ55nM1e5e/1eyHXyNUMV5oVlWcKYIpFIiBE4lSmVN/iGZYqPZABSmuVrGZcP+Xc3NH3p8/lw+PBhvPrqq0Km3HHni4Mo5F0Vx45c1n3hVR4UJofL7WV/Ye57veI71jD5b19hXvcOd5je1dUFxhjS6TSSySQYY+jo6BBTGalUCo7joLu7G47jIJPJIJFIgDGGzs5O2LaNTCaTcx3j7nfoOtpPQ/fK8WWzWcTjcTC+gdS2bc8w0zQRi8XApCNN8oX19PTkhFmWJcLi8bhYZ/AKo+fF43GRafSMRCKBlpYW6LqOeDyeYzZPx8szxsSGVXp3AEgkEqJnT3meTCaRzWbhOA46OztzwhjPX8YYUqmU2FSbL8xxHOEZwisMfFqUGuU0Pwamr7BkMim8C8hhtFjtDrNtG11dXbAsC5lMBul0WuQplTWFdXV1iTC6l66joynoOpuXP8kn5a9lWULGenp6RFnLYe7rYrGYCKNyp6kfWoiXrU7j8bgYffX09ABcJizLQjKZRGtrKxjvpJGckAm9/E6MWxS2t7fjyJEjIm6ybKTrkskkbC472WwWyWRSpFN+RiaTEfGSTMTjcWQyGViW5SljVDdJFt1hFCeFJZNJESbH5xWWTqdFGPi+KAqj/HWHMS7H1HYMNIzarHxh7rZNDpPbosGExePxnPeNxWJij2hHRwdM00Q2mxXyS/dms1khl1QHLMsScknXUdsmy5Bt273CHC4TFCbLic3bOJIxrzBKSywW8wyjjhzF3VeYw2XH5u0nyRjlgTvMcZxe7aLD6wC1Y15h1LYlk0no1FDQPiaHKynGKyk10slkEhbvmdJ1JIxUWBRG8VEYCTyFg88ZM65NTdME40LKeC+VMiSdTsOyrF5hjDcadG86nRa/019qDOTrUqmUKAA5zQ5vDOT4DMMQv1MeTJkyBRq3QCMz6UAggBUrVsDv94NxAaf8y3DlQYXk8P1llC82b6zonixf93B44y5fR42A/Jucb3Sd/Ix0Oi2uzWaz0DStV9nkC6Pylp9B11Fa5TAA4l4qLyZ1JLJ8bYmuozDTNEWe0vMpjNLsuMqarqf8pQaK4qMwSic9N5lMipGS/B50XyaTQWdnp4jDtm1ofAqQ0kTpovVRKgcqX8YPtAQ3i6cw27bx4osv4oc//CEaGhqEHNu8s2hzxcqkHi491+bbOp5++mk88sgj+MUvfoHf/e53SKVSoj7S+1DeMC4TVH9kmaB0kWKn62TZoXKge9xhdB3lncOVMl2f5fJEbUyGW23KYZT3chjJk5w+qkv5rqMwr+ssyxLpJzmh+yHVKcuyhJxQHF5hlG45LBwOo6qqKifvTdMUMpuR6jrJEYU5XLZJrijN7npN7yFfR+VKdVgua5Jt+ToKo7qd5fVLDstIbQLdK4fRMygtFtcTVO6FhKV4J5ieSemjOkPPSHJHAe7rqN7AcRzGGGO2bTOCwmTyXUcf93WFIl9PcVuW1et3rzC63rZtz+sIrzTJ18nxMH79mjVr2Kc//WnW3t4u4rdtmx05coRls1n24osvsvLychaJRFgkEmHf//73WWlpKQuFQuzXv/41y2Qyns9ledJD5HsPCi80z91h7vgGEsY84pPlwB3mTlt/9zqO0+u5cpj87vLffLjjd4f1dX8sFmNf+cpXWCgUYhUVFWzBggVs0aJF7IknnmCmabLm5ma2cOFC9sQTT7C2tjaWSCSYbdvMNE325z//mVVUVLBPfepTrKOjQzwnlUqxq6++mlVXV7OzzjqL1dXVsfvuu49lMhlm27aQr2w2y37+85+zCRMmsHA4zILBILvllltYOp1mtm2zWCzGvvjFL7LzzjuPnXHGGWzy5Mmsra3N/QqM8fd154PDZbiv92cFlIeMV5ibgdzrFeaF13WFhOWTIXdeDTQslUqx9vZ2xjzkn3CnpZjDvPJFDvNqS7zCdM3Dckr+7g7TpHl+zcMLt9e9hUIL3Tr3eAApPq8wSoucBi/zY680yfHRcyk+h/cqyROC/LzS0tKcdQ96JvXMGB/irlq1SvT23HilR8brPeQ0yGmSf5Nxh8mm3AMNwwDjc1/rJt+9lKd9hcnlnQ+v3/vLL6K7uxuBQAChUAgOnxIhOQCfVqTvoVBImMu7y0eWDwCorKyEbdvYsWMHOjs70djYmHO9xkeZ1ENlrvl+it/v9yMUCiEQCIheqhdymvoKy0e+MnLjFeaF+zrGR5duvMLceN3rFQaP+ORyknFfN9AwwzDEerkcN33vK32yjHtdR2Fe17nrR757BxMGj/QNVZicR15hVIf6CxMpdhdoPrwqgVdYoXjd5xVfX2Hyp1C8rpf/d/iGUioATWqUSCkx3sDQfbQGtn37dtx5551i7n8geKVrKPCKs9CwY6GQ9/EqPzmMwt3X5MPrGq8wL5LJJHw+H0KhEBhfG4J0v1whdf3/nw8m4/4/EAjgC1/4AqZOnSqm2uTOkfx+pLzcv8mQ3Dl8LWH//v29Okr57s0XLuN1jVcYhfeH171eYRTeH173eoVR+EhAsuBusIm+0ieHu/+Xw7yu87rW/f9gw/KFH09hvVVukUMZxCQ3PnKmxaTjMKqrq1FdXY3x48fjpJNOgt/vF/O77e3tQgkqTgwYXx/QeY/aktY/3BUHfB03Ix2nQoqF5IbQNA0zZ87Ehz70IeEU2Cs+8DU3eZQHl0xSA0l/X3jhBdx5550inYrRIZPJiPUaxcihWtc8eCkfXdcxceJEgDcqU6dOxZQpU7Bo0SKceuqpYtrPUk59T1hSqRR0XRcjMEgKRJMOstQ0DRUVFeI4FbesuAmFQrjxxhsRDofFlLMXtFBNykpWWvR8GqU5joN169bh8OHDSuZGmUgkgqqqKnewYpjpu9YVMZZl9epJO9z7PDVgmscaHCTLs3y9bMXxSyaTga7rYoNyNBrNKUd5iqizszNnu0VfkCJyJIfQbiXmSJaEdA+4LDKX9RhZgb344ouenS3FyJLinjhUnR9ZlNTnwbbtHCe+4D3gsrIy0RhpfM1ChjGG9evXo729HdlsFu3t7f02borjA8ZN9H0+nzj+pLy8HOBl71Ys4XC410itrw+N0EOhkDAVdkNbP4hYLIY33ngDHR0dePnll7Fq1SrxPNu20dLSIt2tGC3UcSqjg1JgHFJKhFev1qt3pUnTSkR7ezuSySRef/113HPPPWpu/ARB4/vX/H4/fD4fNE3DmDFjRGdF/tD18t9CCIVCOP3008XUnyxzjDG0traKvTmGYeDo0aO4//77cfToUezdu1dsgqZpRsXxAcmAKpORRSkwPm3U2tqa0ygwvhgvKzHGPSZoLhdSckNGH8dxsHfvXqxdu1ZMASmObxjfNBoOhxGNRsG4FaK7rOmTSqX6NPJwo2kaAoEAJk6ciI0bN+KRRx4Rnhyy2Sw2bdoE0zQRDAbFKMyyLOHdgGSIpiDpU8izFcNLlntNUfV8ZCl6BWbbNrZt24Y77rhDKCfwxowUFaFpmjhOhf6n62gURgv0juPg0KFDvfZzKY5fGGNobm6G4zhiapBGYm4loXEjDjpOxf0bKRd3OE1PmqaJe++9F0ePHgUANDU1iZGWYRjCGpHu06TpaopXl/bPuNOnGFnoOBXFyFL0CkzTNDQ0NOC5554T7nw6Ojrw1ltvCdcmhG3baGhoyLkXUkPi9/sRjUbFtStXrhTTh6qBOf4hVzcVFRW9NqvLUGel03WcSiG4p6UJi/vrJD+EpJTkNMjGH25l5qUwFSNHMpnM6QArRgbv2lRkMO75ghqMffv24ZVXXoHFPYNT46DrOsrKynqFkdBWVVXhlFNOET3sjo4ONDY2Ys2aNZ4L9orjC/JhV1lZKaaPg8FgTqOk6zoWLlyImpoa4YmjUNyNm1vpaJrWKz66Rv60tbUJR9QaH5kdOXJEOBZWjDx+v1/s8VOMHEqBSb1bIpFIIMGP0aCeMH3A1yBqampw6qmnIhKJiHC/349TTz0V06ZNE/EeOXIEL7/8slJgJwCmaSKdTotRkjwKojKuqKjAf/7nf2LhwoUwDGNAU8TBYBBnn302xo0bJ0Z4boVDz6Fw+Xe6vqmpCS0tLSJdnZ2duOeee/DSSy/1sopVjAzuNkIxMigFJikwEr40907tFkiHH9vgOA4WLFiAm2++GbW1tdD4GphhGDj//POxdOlSEa/JjwaR9/cojk9s7vGbOi4GP20A0rShz+fDlClTEIlEkORHlci4ZUampKQEP/rRj3D66acLxUiy197eju7ubvh8PvGsfB+bewin/+vr67F69Wox/agYeUx+3I9iZFEKzAXjG0ZN0xQn8RK6rmPSpEnw+Xzw+XziDDDqhVMDFwgERMPE+JTP7373u7xH0yuODxxunu7z+RAMBuFIWyncoyVN01BZWdlr709fCkTXdTE9Scrn8OHD+PWvf41nnnkG77zzTo5i8/p4Kce2tjYlW6MMHafSV/krhp6iU2DxeBwHDhwQpu1yw1RfX4+tW7ciw8+Zcm9ktm1beBF3Q3FQA0N/HcfB2rVrcc899+QYgCiOPxjvdITDYXzlK19BeXl5TufETVdXl6cnDq9rCU3TUFNTgylTpiCTyeAnP/kJbr/9dtTX14tznUiJucmnwPrC4gd3qqnF4SWVSqGjo8MdrBhmikqBOY6DDRs24N///d/FyacU7jgOnnjiCfzv//6vOPXW3Vjouo6SkpKcRoa+w2P6iBrEhoYGIdyywlQcXzj8OBNd17FgwQKUlJSIQ0plq0QiHA7nLNzLnZa+mDdvHs4//3wAwPr168XUJfiJBm45crjXebqGZEjj05xuOSUYY9ixYwduu+021XkaZnw+H8LhcN6yUAwPRafA2tvbsW3bNpj8BFQKTyQSeOihh/DMM8/g17/+dc5R8jKay32UW9FpmoZJkyYJa0VIDlrdcSmOD1KpFPbs2YMDBw7AcRwEg0FRrmSN6FV2uuu8I03TEIlEUFNT02v0LhOJRFBRUQEmnYRMykledyM5sywLd911lxjtQZK76dOn97J+kztJ7e3tWLlyJZ544okcz/mKoUfLM3JWDB9FpcAI2XKMKrtt22htbUV3dzf27NmDVCrVq3fLGBOeEyAJLDVydM0111yDmTNn5oQpjk9s28bmzZvxla98BT/84Q+RzWbh4+e6ucve/UkkEjmjItu2MWfOHFx22WU51qn5cLihkM2PqHf4mpssNyY/ln7jxo1Ip9MiHFyBjh07VqSXwjV+9PuuXbvElPfPfvYzHD58GPv27YOd5xBMxeCxLEt4bVGMHEWnwJiHF3ASOmoEqDFxTxvp/DgVd8NG/1O8lZWV4pgN1Ss7vmGM4ejRo1i9ejW2bt0K27ZzTtYljxxeo7CKigoxWqMyrqysRG1trVBCXmjSFLTDDX0ymYyQOcMw4Pf7MXXqVBw4cACHDx8Wlof0LPq4ZZTo6urCL37xC7z00ksA3xryxBNP4IEHHoBpmu7LFccIGXEoRpb8tew9CjUYkHpNmUwmR9GEQqFeoy9IRhwUTg0RNVZ+vz9ndEdQY2PbtuqlHWdQudBfy7LEOhTJAJUxfafy7+rqGvS0HMVBz92zZw+YdEx8KBTCvHnz0Nraiubm5px0kIzR9XJ8RCaTQXt7u5BtTdPQ2NiovNcPE6lUSnniGAWKToExqdfb2tqKu+66C+vWrRMNh23biEaj4uBBGU3ThJNXOQxceV166aWYMmWK2MtDDSBdv2PHDvzoRz/q5aJKMXowxtDZ2YmSkhJ0d3cjFoshEokIhUUjHPoQmqYhHA738pxRKHJDl0qlxNQebdHQuFcOJo2yHG5sFI1GUVJS0muWQB4lUpjP5xP30XO93kdxbNDWC6XARpaiU2ByRc5ms9i1axeamppyKnQ0GkUkEuk11UgNhDtc0zSUlpbis5/9LKZMmQLw59ACO923Y8cOPPvss0qBHUdomoZEIoGLLroIkUgE8+fPR0VFRc7v8l8Z6vTIv2suC8J8yNfLlq00omLS1LSscBzHQWVlZS/HsY7j4PDhw4jFYiJe27bR3Nzcy9RfKa6hh8rP3TYohpeiVWDgxhzUQ6WFbcaY2CNG/8v3yub38l9d11FVVYVAIACHL8ZfeOGFYhRG04dq/eH4gvE1z/POOw9lZWWorKwUFoSyQnErJiYZccjKqBAoXo2Psj7wgQ/gyiuv9Nw4L8sfKTUapdE14JauDz74IPbu3Qvw6e5sNovXX38dzc3NIm752YWmV9E/pmkO2LGz4tgpSgVGH51bfPX09ORsbCbF5u6p6tyIg6YWqRHQXNMyFFZeXo5rrrkGoVAINj8CXjUcxxeO4+DAgQOYOXMmysrKUFZWlvO7PI3slgcvI45Coet9Ph+WLl2KG2+8EcFgEAY3o5dli5A7VoS8HtbT0yMsFS3LEs6JaY1Pyd3woYw4RoeiU2BUmQlN0/DOO++Iw+gYH02517/AGzvZiMPd0MgNBCmwz372sygpKYHP50NjYyNs6ZwnxejS2dmJp556Cu3t7Zg5cyY0PrqhctT6Ga0cixEHQXHLoyMZWTnSX+p40fUU7pY/t5zpuo4NGzZg/fr1vRSh4thQRhyjQ1EqMEdy3Mv43i7azwPeqzX4wZRuZVdaWprTqFC4F4wxpNNpTJkyBVOnTsXmzZuFVZhi9LAsC62trXj33Xfx0EMPAQDKyspw4403Yv78+WLaV5OMOEhhENoxGnG4kTtWckeKZNAtc3CtuzCPfWsUTrMNmqZh37592LRpk5gyVwwNyohjdCg6BWZZFmzJK4a7YaIwxqde3I0WNSoUTo2IVwNDv5eXl6OkpATxeBy2bef0mhUjB+PH2zz22GO444478Kc//QnxeBw+nw9+vx/XX389Jk2aJK6nsnXLB5Fv9FMoGj/VWZ56yje6chwH9fX14hqSObpGlif6362k3B0yxdBB5abyd2QpOgVmuzaElpWVIRAIQHd5zaipqUF1dXVOw8S4yTVNzdBfLyVIMN4zlgXbPbWjGBls28YLL7yAm2++Gb/5zW+wY8cOoUQ0vkVCnjomJeKlxJiHEcdA0HUdgUAAF1xwAc455xxUVlZi4sSJ4jd6NpHJZLB27VoxmpLjcSsvwq3A4LGOpxgastks4vG4yt8RpugUmAxjDGPHjkV1dXWOAvP5fPjkJz+Jyy67rJez1gkTJgjLRWq43H91Xcfs2bMxadIkMGn6acaMGTnTU4qRhTGGeDyOZDIJ0zTFtDF53iDkspE7J+6OR3l5OSKRCCCNpiZPnoxAIJBznRtq5DRNw8SJE1FVVYUFCxbgox/9qDAecislxq1j3Z0mtzLT+QyBrus5Mwjuv4qhJRwOo6amJqc8FMNPwbmdzWaFocOJiuM4ME0zZ10BvOLL+P1+LFmyBDNmzIAmjZ5s20ZTUxMs7rFcbojkhsHv9+PLX/4yLrvsspxGb8qUKb2uVYwcjI+aqNzokFFau/CS7b7Kqru7W1j9aZqGRYsW4bOf/SzGjh3b531wyQzjlq/yBmpSTvI19Fe+120RCwDbt2/Hb37zG/T09Ig1X/fH/a6Mr9e6wxWFkU6n1XEqo0C/Cowa+pdeegm33nprjkfsEwnGGJqbm7F+/focpULf5UpNC/dwNQy6riMajfZq7NyNlWEYmDVrFioqKuD3+1FWVoZgMAifzwdbOjpDMbIwxtDd3S06MdlsFgsXLsRVV13Vy6M7+N4eXbJIdZdzMBgURhyapqG2thazZs3qdwRGBAIBRKPRnDAaRbk7VZDqIik2+i7Ls2EYePPNN/G///u/OHDgAMDjNPjWEDJQcse/b98+3HXXXWhubs4JVxSGYRhiS4Vi5OhdS1xofBPugQMH8NZbb52wG3EZY2hpacGuXbtyeqGapmHOnDnCurAvNJd/vEKYMWMGPve5z2HSpEkIBAKIx+N47bXXTth8PJHRuPcVKvtsNova2lpMmjQpZ+0LXLmcccYZwnmzu8EHb7S81pkKgTGG+fPnY/ny5QiFQr1GSA6fBiSZJOUFj06VW26z2SwymQySyaS4NpvNoqGhode14J23o0eP4vnnnz9hO6ijjdzRUYwcvWtlHmQnpycqNLKSK79hGPjmN78pXEARXu/JuBGHVyPgBWMMVVVVWLJkCcrLyxEMBmHbNn7/+9+LqSfFyOE4DlKplFAQHR0dnnt3GJ9WvOuuu3DOOedAk0zVZZLJ5KAVmK7rmDZtmjh2x+sjN4iyAoOkxDQPC1i3stV1HZ2dnXj22WfFtKn7XWzbVp2qYyCTyShPHKNAQQrM4SfVelXiEw1qHEzTxObNm3H48GGUlpYK5azxzay6aw8OeKMxYcIEGHyPWH9Qz53iJvc/tA5zoufliQTld1NTExxugNPS0oKurq68PefKysq804fgRhzhcNgdXDAUp1uWSG7yQb8zyRu9G5/PJ6wrwe/x6jQxxhCLxdDR0ZGjDJVsDgw6pLSYcbiNwbFu7h8I3tLvAfXOvCryiQDjU0Y0/9/d3Y3nnntOmFLLH11aY5BxG3GAK8RC8kTj048EjQIUww9jDA0NDXjggQewa9cuUV6MG08MdjOybMQxUGR5A0+LjFs25M6UfG8+5RuNRjFu3Lh+lVFHRwd+85vf4IUXXoDjMtFXFE4qlUJPT487uKjIZDJ4/PHH8cADD/SS3+GiYGkd7FTJQMlms+ju7nYHHzOapsGyLMydOxdlZWViP1hfjYgbjXtfoN6vHN7fvZBGf8lkEmvWrMHOnTtHrKCLGcYY6uvr8cgjj+Do0aOiE0Pnvsly4FYsyNNp0zRN+C4cDO5ngKdT0zThaZ6Ujyxb9J06Tm75pQ+NMuGST1kBgndMt23bhn379r0nZlhGC7/fX/SeOCzLwvr167F+/foR0xcFK7BsNlvwaGOwWJaFtWvX4re//e2QD0M1vo4xfvx4RCIRMSVKSkVuEKiBkxsA+mu4DrqUG4P+oHg7Ojrwxz/+Ea+88gq2bdumjlcZAZLJJNLptJjyKy0txYoVK7BixQqUlpa6Lxf0Vba0Z2uwyHGT4tE0Dd/61rd67U1zKzO6l6azvX7LRyKRwJ49e0Qd06XpcsXgcXdsiw2DW7p2dHSgsbFxRPKiYAU2WI8DA4Exhi1btuCll15CNpt1/3xMONxs2u/355g+63zD52WXXSb24ZDyogaFYNyIYzDQs/x+Pzo7O7F7925s2rQJ//7v/462tjb35YohhDEmFFh1dTVKSkpQXV2N66+/HitWrMi7jkWdk3ydlKE8HscwDEycOBGzZs3CokWLctIkP9+dFp1P+cm/u69zp3337t341re+hba2NjFSkxWoYuCYpln0njgYH/m/9dZb+Nvf/ub+eVgoWIENdq5/oKTT6WEbfpIlZTgcxu7du7Fv3z6AD/+/+MUvoqqqKkcA3ZVZ13VMmDBh0D0tMuLo6urC9u3bYZomWltbh6wRVOTHtm1kMhlUVlbiS1/6EnRu5TfYaR/GGCoqKhAKhXJGP4NF13V84AMfwGc+8xkRp1tReSkk+s4k34ekkGQ5lf/GYjEcOXIkp5PY3d2NTCaDPXv24OGHH1Z7FQdIOBzudchosUEylkqlkM1mYUsu+4aLghUYJeZEwbZtJJNJscbkcAsZwzCQyWTw2GOPYd26daKyy8i9Vxky4qANrgNBkyzHAoEAxo8fL6YUB7uOoiicRCKBRCKBkpISfOlLX8Jtt92Gk046qd+8p3Lzghr9oUDjJx1UVlZCd21OlmVRVmwkpxpfm41Go2C8F2zwDcuy4pLlXH4nm+/zbGpqwn/8x3/gJz/5yYh1WN8rpNNpxGIxz3ajWKBOEzESeeFdMz2wpAMfj3ccx8HOnTvxrW99Cw0NDXD4OV5PP/20OMNpzZo1yGazOY0APNYaZDR+/PtgR2B+vx8adxo7fvx44ATsGJyIMO4DMRaLibWla665BpMnT3ZfWjAaN+KgUfVQQbKQT2lCMgYiZabx7R2TJk2Cxtd6ZSMO2VUWrXW5G5dUKoVEIoGtW7eKbSSKwqHRvGJkKUhKGXckimHSqpZloaOjQyhJqoCDhTGGtrY2rF69Wvhv7Orqwu7du4UboXg8LhoCcKXn8/kwY8YMzJgxA5FIpJdiodGSnAey8usLjR8fX1FRgUgkIjY151OWiqGFpjRk57uFQmXsvkcevbl/Gwi6ZEAkh1F4PjRpdBgKhRAKhXqlVdd1LFmypJebI81j5kExePoqp2JjJOWqIAUG3gAci1Lpi9bWVvz+979HQ0MDMAQZQBVb13Vks1nEYjEkk0l0d3fnWI7J14Hvnbn55pvxzW9+E3V1db2mlxzH8TTi6E94dV3HWWedhXPPPRf/9m//hmg0Cp/PB9M0h229T5GLwy1Ow+GwKK/+yg3SlJ1bwbBjPE7F7/ejpKSk171y2tzPlKFwkl36362kNH4enVuWFUNLNptVnjhca62QZHC4KEiBOdyCTx/k1FlfyNN7ra2tokIOBZqmYcOGDbj33nvR2NiIZDIJXdeRSCSgS+sMcmNQWlqKcePGeTpk1bkRx0Dx+/348Ic/jMsuu0wc0WIYBizLgmmaOHr0qJpKHEYcvv6p63qvkcixUFFRIeIbSJyGYeCCCy7AlVde6WnCT0oTkmwahoHZs2dDl0ZlzOXYl5DlWVbANH347rvvor29PWeakd5hIO+h+P9EIpGcg0kVI0NB2kLTNJimOWzWcjp3tzSUFYjxqch9+/bh0UcfxeHDh+H3+2GaJm688UYxRUiVW9M0TJo0CVVVVXl7DGTEMZg0+rgncL/fj2g0img0CsuyYBgGvve97yEWi7lvUQwRNDVNU7dD1UkarBGHYRhYtGgRli1bVpBC1TQNoVBIXO+G5Ncd5jU6s20bO3fuREdHB3z8dATGGGpra3NGp4qBkUgk0NXVpfJvhCm4JpPXguHCqxIOllQqhX379iEejyMajSKVSqG7uxtnnnkmzjvvPFx99dUIh8OiB6px44wf/OAHOP300/M2cJqmiTWUwVJVVYX//u//xmmnnSY6BZs3b8b27dv7bcgUg8O2bQQCAZSWloo1zGOdDielMhRGHPnk3h0u7190f0hm5U6grMAojDptlA/PPfccXn/9dZSVlaGsrEw8SzEw/H5/r83niuHHu6X2gA7HGw7kaZGhMOBobGzE3//+d7S2tsKyLHR3d+P555/HhRdeiBUrViAYDIrpFKr8fr8fCxYs6NMhJ40U3Q3LQDAMA6eddhqqq6vFnrdYLIaf/exnyiPHMGGaJtLpNPx+f86hkcfKUMXjRo5T7tT09TwKlxUYhfV13969e9HY2JgzFSl/FIVh8G0LipGlYAU2nKcxU+XSeM84nU6jp6dn0M/LZDKIxWLiXKTKykr09PQgHA4jEAiI55CiLFRpOtyIgxQffQaC3NAcPnxYnL/U0tJSUBoUA4fchp1zzjk4//zzxXaGY4FxIw7TNAclB30hy5Ycb38NpFt50UeXDJU013oZybJ8v1JeA0cZcYwO/SqwfEI91ALuOA4OHjyIbdu2Yffu3XjyySeF6b5t21i7di1ef/11Tw8BnZ2dWLVqFRKJRE6ldbjxyRlnnIFwOAy/3w8mbbbTpKNT6H93oyGj6zrGjx+f0wi48yffvYQcf3t7O04++WSx/kfpUAwtVFZXXnklli9fDkPa4NsffckDeeIYatx1zS2X8v9y2tz1k37T+zC+ct8jk++9T0Tc7zbUhMPhPmdvipHhznMUosAIWggfDqiCbdq0CS+//DK6u7vx7rvviinLbDaLp59+Gn/60596TWMyxrBz507cfvvtaGhoEL1tjZ8kbZqmmDIkZeXz+cSoy90I9EdLS4toHDRX73Yg0P1LliwRx8qn02lPBa04Nmi6mDYeD6S8+2KwRhz9QfWsr3S6f3P/z6QOkZd8kpKk+kT3D1cdd2NZFrL8cM3hgjGGgwcPYvv27cM+u5FIJNDR0eEOVgwzvSU7D2SBSILurjDHAsVFJ9wyfk4T4xuS33jjDWQyGTiOg9bWVvT09KC9vR22bcNxHHR1dYmDCUmhUByJREI4RqXfNQ+v8oVCayjEvHnzsGDBAvj9fs+GIh9McvkD3hg+/PDDePHFF08orycnAtRQD6R8CoG2QwwXmuRQWv54zRiQzMvKT77ODTXoVK/p2pGQO9u2sWrVKvzsZz8bNstmSB3fBx54AKZpDut70fqqYmTpt0aT8A/nyMBdQQnHcfD222/jlltuwdq1a1FfX4+77roLf/nLX/CjH/1IHCBHaaNKS4rK5g5cyWSelGJfFbsvGGM5oze/349PfOITuOyyywbckMnv6/P5kEgksHbtWnEuk2LooFEGdVrccjZYqLM0nBSaTvk6WYkhzwiMONYRmG3baG1tHdA2ENM0sWnTJrz66qvDOrPjOA6amppQX18/7HWKZneG610U3uSXbAnGXUkNV+F4NSiMj1ASiQQOHDiATZs2obOzE1u3bsXGjRvx3HPPidGaPK1YX1+PPXv2wOaHFMbjcUQiEaEo6B0G29Ps6uqCw706aJqGmpoaYZ5dKJqmYfLkyZg4caJIOylFDKIRUfQNyclQmLzLJJPJYR1BwKWY3HXEHSbLNCtwDYxkjuQZkvzlu0empaUFv/3tb7Ft2zb3T55QnHKH2Ou9hgJNmuL3amOGkkwmo4w4RoGCFBiG2ZUU4TUNIjc6pNTeeecdMaWYTqexa9cuxONxGIaBJ554Ar///e/FlFE6nRZ72NxKZqACrWmap4upgaLrOpYuXYply5YhlUpB0zRkMhlh6VlIw6EoHJIbGoEPFeXl5Z4bi4cKanQ16XgUuTGmMGqo3fJMI6++FBgpEpI7+eOOz4uenh689dZbaGhoEB2FfM+SKeSaocIrb4aacDisPHGMAgUrsIEI50Ah4Tpy5AgymUxOpZS/Mz4SXLNmDTKZDDRNQ0tLCzZs2ICenh74fD60tLSgs7NTVPLOzs6cDacU7sYrzIuWlhbx/VjyIhgM4rrrrsNHPvIRhMNhdHV1YevWraJR6otjeW4xIq+rFlrOhdDT0zMsRhwyGl+vpe9uZFnRJI/zVGfyXQNJsdO1XvEXwmAMY4arM8z4jEwmkxFKmKyb5ZmaoSaVSqGjo2PA+TDcjGRbQe8+ks/su6XkuBM0lIqMMYZ0Og3TNLF69WphCu9Ix6TTx+K+Axk/YffNN98UlVtOE1VYx3Fw6NAhGIYh9n/JaHnW3vLBGEM4HBbPKeSefGiahrPOOguLFy/G5ZdfDsuy0NzcDPSzZkFQ/ij6x+bGPkOtwAKBgOhYDVdZ6LqOc889F7W1tTmKLN/HnRb3+7r/J0Uih9u2PaDpMHoekwxO+mO48stxHGzfvh233nqrcO20Y8cOvPHGG8P2THAjDrltGC4YY8hkMgUrY03TkM1m0dXVNexpI/kbSfpvKSXclWMwuO/v6OjAH//4R2zfvh2dnZ1wHEc0OA53wkrYti1+SyaTuO+++1BfXy9GV4z3KGXmz5+Pk08+OaeSU2+zkIomw4ZhHSUYDOJf//VfhaFJfX193gVxxhiy2Sx27dqFgwcP9nrX9zKJRAI7duxAa2trLxkimpqasG/fPpimmbPxnpT9YMou37PAlUshnY1jwTAM1NbWorS0NEdeSdZlBaS5Nuh7TXVTHNTYyAZQ4PE2NjbiiSeeQFY6sTkffeVPXziSI+GhhDGG5uZm0Rmmd5RHyg437qAtMUPFcMsC+Kh/1apVOHLkiPsnTxzHwebNm3HfffcNuyUmJB0x3M8hCsrxoUyMw8/iokqWyWRw+PBhcZqpLNQaXxsiYad0aHyP1/r163HfffehtLQU0WhUVGBC597jy8rKxP30cT+rEDRNG5aeDPWuLcvCww8/jG3btuVNXzwex/33349nnnlmyNPhhWma6O7uHnVl2dLSgh/96Ed488033T+BMQbTNPHHP/4RP/rRj9DY2Ignn3wSDQ0NYHyEP9jTFKLRKKZNmyZkCFJ9SCaTyEqHog4XssyCy+GMGTNQVlYmlBQpUyZ14uSOWr70kXGW3Pj29PRg48aNBZe5nLb+cOfhUKNJruHou5vu7m488MADePrppwseyfRHNpsVXnWGk+bmZjz44IPYtWtXQXlomia2bt2KJ598sqAOyYlG79J1IVeeYy1sx3FQX1+PX//61zh8+LCobPQMQpOUTTabRVlZGXRdR1tbG5qamqBJLqfa2tp6eUSgeDVNEw5K5TgHC2MM48aN86wUQ4HDXVX15RPRsizE4/ERO/J93759uPvuuz3PQRspSA66u7tFL9L9sW0bhw8fRkdHB44ePYr7778fTU1NME0T69evR319/aCmECdPnoybbrpJnHYMabRTVVWFkpIS9y1DhsbXv6qqqpDNZmHxs8d0XccNN9yAOXPm5OwZlGVc/p/SK3+ojtjcWleG6kghdYXyvpBrCVaAVXNfv/UHvVu+OBzHweHDh9HU1FSwku6PSCSC6upqd/CQ43DvQgOxfnUcxzO/3f8T+cKPRwpqiakS9AUrUDk0Njbi0UcfFcN3mhIk6DkUH7mCCgQCqK+vR0NDQ87UiG3bMAxDVEb60NRIaWkpxo4di5tvvhmzZ8+GJk2zFJJeN83NzeL+oYbS1NzcjD/84Q9IpVI5aaS00zsPN7ZtY+/evXjkkUeG3VihL0gW3HJomib27duHjo4OZLNZsS8QPO0PPPAAtm3bhiNHjqCjo2NQHY+ysjKcdNJJnoqqs7NzQGtFA8WyLEydOhUrVqzAt7/9bSxbtkz8VlZW1mtKVFZg9H9/2Nxal5T7YOrEQOsC60fB2LaNnp6eYRsxDPY9+yKVSo1YJ486If3hOI6YwfKSfU3T0NbWhj/+8Y/YtGkT3n77bdx9992DzvdC0zWU9H4rD0x+GGC+xNG6THt7e04449M3zc3NQqH4fD74/X44khsnaphkoaKKaFkWamtrxR4uTdNw3nnnibOLKB6qFDRK1DQN8+fPx4UXXoiamhpceumlGDNmDAzJW0e+98mHrusoKSkZ1L2FwhjDxo0bcffdd2PdunV47bXXRN7RO2b5lgbKo3yVkTGGWCx2TMpH48eGjCRU7t3d3Uin00gmk6Js5fdtaWnBfffdh/Xr18PhXloIy7Lw+9//HrfccgvS6bTYgJ4vr/oiX1kHg0HPg0+PFZ/Ph0gkAp/Ph6qqKkyaNAnXXnstTjnllD4dEVNHDtKUIsmqfI+ch6Zp9lJAdH2+58gMJj/Rh9JjjOHAgQP4/ve/j127drl/Pm4xDAOhUKigPBsJHMfB7t27hYs9r1EyYwzxeByPPfYYvv71r+PJJ5/Egw8+KNqbwUDPGKl8KEiBMckE2SsTGhsbcc8992Djxo05vwHA5s2b8dWvfhXt7e2i4jBpWkOuTBQuKwjTNEVPk87cmThxojgbiaZAqHGiERhjDKeddppwluvG5/OJdTM5DX3BGMs5k2k4sG0bqVQKPT09ePLJJ/HXv/41Z7qAFJg7vRa30JRpa2vDb3/7W2zZsiUnvFDkfHU/bzixbRv79+/HnXfeiZdeegkPPvigKFs5PZlMRoyuYrEYDh48iFgshqNHj6KnpweWZeGtt97Cq6++iiVLlgz5Pp3BTEkWQjAYxBe+8AWcdtppgGtWQv5fhuqTW0nL3+ka+X6aWnLH6b6uL+j+gVwvKzC3bCUSCWzZsgXd3d1gjKG7uxutra057yZ3aPKRLz/oM5QYHvtMh4tC0s+4G74333xTrM15lQ/j9WrTpk05s2KDQU4XYwxdXV3YtWvXoOMrhIIUmMMd4eYjm82ivr4eO3fuzFmbcfiazubNm8W+DK/Mp/8d1/4VjZuAktKorq7G2LFjxb4Th8/tUsGQANEzyHmrm2AwiI997GP4p3/6J+gDMINmjInjVIYSxhfRaaTDeIehublZTFExfhT83//+dySTSUASSNM08eqrr+LNN99EfX29UGSdnZ14/fXXxXrjYJAF8lhwuFeV/tbutm7dijfffBONjY145ZVXsH79evzf//0fOjo6YHocXcK45eaDDz4I27axa9cu/PSnP8Xhw4ehc3di7e3tOOmkk1BeXu5ZiQdLIpEY9HRLX4RCIXzsYx/DpEmTwKSZBVLg1ChTXtA7aVJnrL/3pOuocZFHanJ8/eFwS+Genp4cpdQX9E6UBi+oc5DJZPC3v/0Njz/+uJDrbDaLDRs24M033+y3caQ0yc+Sn1nIOxZCOp0eESMODLAu0vRwKpXCwYMHc/JLk5ZTTNPE7t27YXusiRaKnMeapmHdunX42te+NqzT7AUpsGw2i2AwmCPY8ktSJvzv//4vXnvtNZFJbgElZQEAra2tePHFF0UvSpM2K4OvNT3zzDM4dOgQQqEQGGMIhUIoKSkRCg28B6nzo1N27dqFnTt3ivjyEQ6H8d3vfhcf+MAHxBHzfV1PaJqGcePGwRhijw6MMVRUVOCkk04SwuZwa015pLlq1Sr8+Mc/FnvlbNtGY2MjVq5ciT/84Q944IEHcNddd+Ho0aMiXiqrwaSXDWKBPh/pdBpPP/10n41OJpPBo48+il/+8pewuLfyt99+G/v378cDDzwgzKLhaoC3b9+OBx54AFVVVWhtbcW6deuEIQzlAW1TGIp3IaqqqobFgWu+9GrcqIM6eF6QsqNylz+QGj/6XzaKcdeBTCaDo0eP9hrZE/Qc27bx+OOPo76+vuD8pQ5tf5jcb+I777wj0pjNZvHII4/goYce6qU03e8JaW2Z7vdS1sdKJBIZ8hH+sSKXdWtrK+69995e04OMdyZotuJYFJiM4zjo6enBkSNH8tb3oUDUBMZNkd0CAZ6YvioNZcLevXtx++23o6urK+d3EhTbttHQ0IDOzk783//9H77zne+IHuysWbNQWVkpRlGNjY34yU9+gt27d4sNgl4CR8IJAKtXr8b69ethmma/DW84HMbixYvx6U9/GrW1tdAKaOQ17vljqAqZcBwH4XAYU6dOhW3bYtgfi8XQ3t6OP/zhD9i/f79onNL8JGfGGN544w388Ic/RCKRQFtbG1577TVs27YNf/nLX0RFpco7GLzkYTD09PTgb3/7W5/m2YwrJJ/Phwz3LffCCy+gs7MTK1euFLJCckBKTnOdLlBVVYXTTz8d1dXVYHw0Sx2VoWS4jTi0AXrIoPdz8hwTRPHJyI2c+/r9+/fndIiIzZs347vf/a7YDmOaJl5//fVe9b4v8smAF17TnKZp5qz5uaE2yX3fcJFOp4+741TktjGbzQpHCW7ouqFQNINtZwrFtu2cWQ8hzc3Nzfj5z3+O7du3ix8J0zTF4rFXAklYHD4K6ujoyPEAbds2uru7sX37djz//PM4fPgwVq1aJax2GGMYP348otEoLr30UjGVFggEYNu26I1qmoaKigrU1NQI4T148KCYLpIrp2EYwtDDC8YYpk6divPPPx/RaLRgQS8tLXUHHTP0bEp/fX09MpkMMpkM2tra8Oijj+KJJ57Ak08+CVuysHT4UTKNjY3ClVYgEMD69evxy1/+EqZpimsTicSAT31mBZg7FwrjG4m9pnRlaORkWZZQ0jafPkskErD4eW8HDhzAww8/jF27dmHdunXo6uoSswSTJk3CDTfcIKbgaIQ+1AyXEYcMKRZZwXiVh8aVOJNGGrI8a5qGaDSK6dOn56zVhMNhUXdI/jTeOdi7dy9WrVqVM1qyuWXqn/70J7EPzuFeTuR4+8PrHfLh1bCS71N6X4K+Z7NZPPvss0J+5WsymUyOIdRQ4PP5ht3Yid6Dyrc/5HfT+VSi+32ZtOWIrisk7nzI7YU80h0KLMvCqlWr8K1vfUsYpungDWFbWxteeuklHD58OOcmjY+c+nKb4/CRQSAQQDAYxFNPPYX/+Z//EVNhtm3jd7/7HW6//Xa0tLQgnU6jp6cHmmQ9SBVw/vz58Pl8ME0TWb7fgTJe0zTccMMNuO666xCNRuHwYWo8Hhfpo/ScfvrpuOqqq/JO8VCmUgYXkslsGPzpEXI66EM9XMMw0Nrail27dvWaeqFKmEwm0dLSIvaIdXV1oampSaR59erV+OpXvzrgeXpSIv1hmiba2tp6TVEQVM4ytm2jo6ND9NzpGl3XxWyAxhvTNLdGZNyy9bHHHsNvfvMb1NfX4/Dhw4jH4+LU7Wg0iilTpojpV3K6W8h7DIThkgWiULkkNFd9ku/XNA2VlZU4+eSTRefP5ubqVMaapsHv92Pq1Kk4dOgQ/u///g9tbW290qDxNuH5558XFsXULrivzUehHaPW1lY0NzfnvIvNZyH6yp9sNotf//rXvdYoqRH02hB/LOh88zR4nexrL+dIwfisGhnQeWG7DKMgydFgYbw9oi1H+cpooNi2jX379mHlypViWjtnCtFLAB1u9VZWViZGYe5r6LqJEyeitLQUTU1NOHLkiKhMpmni97//PQ4ePCiulZEzTuMjkSNHjqCpqQm2bYspRF3XMWnSJGEOT/fp/JRl+t9xHJSWlqKmpiZnVHasaJqGjo6OYyrcvqD3pwaCeri2tKZhmiZaW1vR0tKCPXv2YOPGjWK0tmXLFhw9ehSM7yX77W9/C8uyYBgGmpqasGPHjl553xeaZMXlVeYEYwz79+/HT3/607x7YUgWZPmJx+N49NFH8dJLL8GyLLGXpqGhAbt374bFDXQ0TUM4HMa4cePAGMOuXbvw3HPPoaOjQ1RAhxsakfyQPBuGgWXLlmHevHnH3Lt0M1xGHMcC5QXVF4LyRR4l2HxUS9dqmoZgMIgzzjgDnZ2d2L9/P5LJJN5++23xniQ/qVQKv/vd73JGOAOpF2YBbo00TcPKlSvx8ssvizCSI1JgXjhcObe3t+coSo0bhezevRv19fUirC86OjoKcjmVTqfR3d0N27axe/du/OlPfxpy2RhoHjt8H9gLL7zQa08pQfUHPH4aee/evRvxeBy7d+8eUJsB/tydO3fiscceQzqdHtI22P0OOQoMeQqUKqplWdi/f78waW1raxO9N9M0MWHChF6Wf9QI9vT0QHdtmHQLvmVZogcfi8UQj8fR3d0t1saoMaMPCbPGe44UF6XJ/bLHim3bwohjoIXaF4ZhYPz48aiqqsop7Ax32knvSPnc3t6Op556Cg8//DD+/ve/I5VK4d1334XFp92y2SxSqRR27NgBi0+5WdzYxat8wZ+1fft2PP7448JSkASanr9//3688847sF1TOoxbAq5cuVJYSHpBDSuVSyqVwtq1a7F3716YponNmzdj06ZNWLduHf785z8LWdA0DaWlpaiqqgJjDJs3b8aWLVuEHIB3YkpKSjBlyhRo/Bgey7Lg8/lQV1eHaDQ6pBUJw2jEMVjkOiHntdeHyPBTHTRpCjscDiMej4sO1He/+92ctT4q/0QikeMke6D1TeOu2R5//HE0NDS4fwb4SIoUAcVPDTOl10um5bTIcuLz+XIa7b5IJBL4y1/+gmeeeUbIYj5KSkpQXV0Nm69h33nnnf1a3B4rXu9NGNzYx3EccYIG5YksA8y19pXNZvHQQw/hwQcfxM6dO3HHHXeI/ZVu2XFDv2uahp6eHrS3t4u2eCjIZDK9PP7nKDBqqNwkEglUVVWhqakJ3/zmN/H3v/8dmzZtwq233ip6OaZpIhgMIpVK4Y033kA6nYbj2nwqv4j7u6ZpmDdvHiZPnpxzbVNTkzB/ztcAaZqGQCCQ48CVhNbrfQaLxq15SBkMFZWVlbj11luxYMECMXqgSmpygxRIwsYYQ0NDgxh9OXyUS2ly563XdxnGGI4ePYof/vCH+OpXv9rLowU1iA899BAeffTRXgoMrrTlgxoNuobek9753XffxcGDB2FZFtra2sR0qcanl2kakEbbfr8f5eXloqKOGzcOt912G5YuXZrju9AYwNrMQBhuIw4vqB7I8i1/KE+Rp+yZ1MgwPh0rlyflmWmaYp0hxc+sI0g5tre345FHHhHTOQOB5OrIkSO45557cODAgZzfKZ2QFLP8WzwezwnLhzsv5Djl/71wuCPc/fv393kduF9McuTgTu9QwaTR5wMPPIDGxkb3JWCMYcuWLbj33nuxZs0a8f75oDjl/KF2p6WlBTt37hT12uGW0flGlnKZ0fVy+LHkiWVZ2LRpE5599lmRXsbYPxQYZbidx7ouFoshGo0ikUjgjTfewL59+7B//3688MILaG5uhsnXq0KhENLpNNauXQvTNHMEW34Beh59qBH7+te/juXLl4sRnMOnhcrLywHp3CF3GnW+ZvLMM8/k9Hrc1x0rGp/KGkrlBZ7+008/HaWlpSJum59pZHMDBnoXwzBQXV0NXdfx9ttvIx6PQ9d1jBkzJqccqVFy+OiLGiNZiBgfYVmWhZ6eHhw6dAhpfrQNdQYcyW3WoUOHxLqcm0KEU+7FUtmn02k8/vjjoqJQBQ0EAggEAmC8sa2qqkJlZSU2btyIhx9+GKlUChUVFZg3bx5KS0vBGEMkEsFFF12Ez3/+88KAQ+Oj8+FgJIw43EQiEZxyyimorKyEw9dHIck6TTnrkmEGfTSu/HRdh8WP70kmk9D5FLxct6j+UhiVOX13HAfNzc148sknRT0vtL4xyeKZ8Y6IXKc0PoX+8ssv50yh02+M7/Hsbw2S5Je+D4b+nkHIRhyU/4N9Zn/Yto3XXntN7EmVn0NThj/4wQ/w4osvwnENSqg8KczhnV+qKxQfyYtc1/fv34/bb78de/bsEWEylN8UN/3vTuNgYHxZhLzw0zv0GoG56e7uxo4dO+D3+4WgPf3001i9ejUymQz+67/+SwhwIBCAw0ddu3fvztnzo2kakslkTqbTy9Fzp0yZgtLSUpSUlGDy5MnQdV14aqcMpgpLQq1JlXL//v1iGo3CjzXjZJjkiWMocVcQashp9EVCofGpsYkTJ4LxhVLG13kmTZqEkpISMKlxIOW0fft2/PWvf81pCMCFd/fu3Vi1ahXAFalt29iwYQN+8YtfoL6+XuSnzS1JvciXx4wxJBIJ7Ny5U6xpuclms9i5cyeeffZZPPTQQzAMQ3RaSDlUV1fjuuuuw/z58/HSSy9hw4YNsLm5/SWXXCI8VhjcnU9dXZ0oJ5KZfGk8FqjRH27kZ1RVVWHZsmWoqKjo9U7UM29oaIDmMU1PH3AFRZtMqZ7I9cnkI7BIJCIacXf74PDOhju8EEg5UhsgQzL84IMPIsu3ScCVD+3t7f0+V35fGXpPr99kqO0qBHmGQL4vlUqJzuNQ45Y9hzuO2L9/P3p6epBOp3PKVb4+k8mIZR3KR7mM6T5SZOBr1rQvM5lM4uDBg2hsbBT5KJcn3UdhR44cQXNzc795LkNyION+F6HAHA8Ht4yvbTzzzDPwcRNox3GwZ88ePPnkk+ju7hY9Z0gKjPEpLlovocw4ePAg1q5dK+KmZ1Km0b2lpaWYNm0aAKCurg7hcFikiRJfU1OTUyCUafQd0r6YoULTtIIqzrEQDoeFRaXDlVhW8j5NFUR+d03TMH78eCxatAiGYeR0Ghh39UXKnfImzX1UvvDCC3jwwQdFXIwxbNiwAffccw/+/Oc/C+Vl2zZaW1tzhEdGrgSQGo+tW7fi85//PL72ta+JCkXXWXwfF3hFr6+vx7Jly2DwLRC0rjl79myceuqpCAQCOHr0aM7UYm1tLSoqKgCuULwYrinEvqZThgp3fuu6jkgkktOwEI7j4K233sIbb7whrvX6aLxRobVHtzwbhiFGPuTBhDGGVCqF7du3C+sySPJI5V0oJKN0n/tdwA0o6DdT2hJi27aYQvS6T8bJsyxCdaMv5Pfq79qs5Eya6qdt23juueewefPmXnk8FJBs0PvZto1XX30VTz31lGg/6GNLsxvpdBpbtmzBL37xC+zbty/niCiLG055vTOFP/DAA3jppZdw8803C0Mx+p2e1draimQyCYPbC/z85z/HU0891SvOfNjcq85TTz0lZAUe76zLBUQKhOjq6hLuiUiB0XXt7e2id8T4VJThcpRLcdm2jfnz58PhFo26ZCVG92qSldSiRYswbtw4aHzUZvE1J4o/GAziy1/+MkpKSnIqEn23+RBeftGhwHEcjB8/Xijyoca2bcyZM0dswA0Gg0J5UWUC9wkpC63jOJg2bRpOP/10OI6Dd955B1lpnwvlocMrMwnHnXfeKY6oOXr0qCizTCaDrq4usQ7l8Oki6onnE0K5LMDTtnv3brzzzjtobW0VFZuucaTpi0AgAL/fj4ULF8IwDPj9flHeK1aswJw5c8TcPFUSSJ0Ud3mTrMryONSMthEHlb07jHrFVGch9ajpr8ZH8w5v4Nz5R2Xok4weGhsbcdddd2HDhg1Ctqgc6TuRT0YIKnebd46oHN1ovFHcsmULNm3aJOpBlvsD7es5Gld8+a7xCmeM4eDBg3jssccASYmBr8e//vrrvUYF4O6/qN6SnJM/0y1btng+a6DI7aYXDh+B0fl9Nt8zSuXX2tqKv/zlL9i6dSs2b96Mn/zkJ/jBD34g1h9LSkqQzWaxbds2wEPJU3194403sHr1aqxatUpYc8LVGdmyZQsaGxuRSCSwbt06tLe3IxaLecqKF9lsFi+++CJ+/OMfI+3aMiHfnzMCo0aB/m9tbcVTTz0lrFjcQkthyWQSsVhM/CZfQ8pp/vz5ogC8EkNhVVVV+M53voNFixaJikWNEcXp8/lw4YUXCu/P7uf29PQMy654bZiMOIhJkybhwx/+MMaPHw/TNBEIBETPkyoFKXK48o7yyOTnX8kN/erVq9He3g7TNNHQ0ADHcdDQ0IC//e1vyGQy2LFjB55++mk4HvuHKM6DBw+K3lRfyNOEjCtDGhXKCox+lw1vdL6XhjopdC1NXy9btgwLFy4U12vc7JvulcuE5ILybDgYDSMOmZqaGjETQe8KqWE+55xzcMEFF4j3l+WF/qf8kyFl5vf74eNeUcDreg8/5kSXpp4oXip70zSxd+/enCkjuoZwpBkfUhJuZUNyyPhI/u233xbP6Uvp0bNYHuXaF5Zl4e2338YPfvCDnPSY3N/o9773vZx1doI6fZA6ctT+9TUDYNu2p0LMB+VXf9C7U1oMw0BPTw9WrlyJvXv3Qtd1JJNJbNu2DSY3AJs3bx5SqRRWr17dS6YsyUKc2nS6xg2l0eEWkD/+8Y9F/fS6Ph+aa4rZ63lCAuhiIp1O4/XXX8fevXsxc+ZMXHjhhfBLmxbl+6hxkgWKGloapZFXjNra2hxPGtTDJyHTdR2TJ08WysnhSszJs9ufrpHTT/uk3C97rNB75Ks4x4Ku61iyZAmuvvpqVFRUwODrOYxXbBIy8KlatyC78x68cliWhfr6eqTTaTQ0NOD+++8XFYaEkCyodL720d3dDU1aW9S4/7l0Oo36+np0dHT0kgPwacD77rtPTBUyrsCoIrmf60idJsuysGTJEixbtgyBQAChUEisMem8E3PKKadg2rRp4n5IeaG53EnRNfSbO61DQTAYHJY10f5g3C/ot7/9baxYsSJnxErouo5p06ZhxowZAM+PSCTSy+hEzjNCLnu/3y+mbNN8vUuur4wrlEwmg1/96lfC48svfvELsVZp2zb27NmTs/hfUlICjbcdpmlizZo1uOWWW0SHhtoCaghlWSQ57QsmNeD0fhSvO/0ysVgMO3fuRIZvL5B/b25uRlNTU871MpS3FD/dT+2SG9u2sXLlStxxxx1DOhVN70sdA0qHwdeX5fyTp91pGw/VKZnf/va3+N3vfifCSaHJeejOUypfaoup7Khu9ge1+dSeeZWbLr8svVRbWxvefvttrFu3DvX19ZgwYQJmz56d0/OXIzO5qynyFE/7tqjRoof5fD5Mnz5dmMrH43E89NBDyPA9HfleSn5xd3hFRYXY46Nzo4+BZNJAYJIRB73TUKHxvU5kFs4YE0o/y/fgnXvuuTnWVySY4KMUORwAGhoasHfvXnEdLbxms1l0dXUJ10yUX4w3Un/9619FQ9LT04MMd70TCoXw2muv4fXXX/eslLZt44knnhA9VHomyQsJPKWPuXrf48ePR11dHaqrq3HxxRcLy0pZ7uhDMkEjNrqO8kMu+6GWA4Iag+HC5/OhpKREPIdxxeXjU4MLFixAeXk5ysvLcdFFF6Guri5HLil/HcdBMBjEJz7xCZx66qkiD8EbXZIZ+ui880l56/f7Yds2nn766Zz1HCoHjcsobZhNp9M4cuQIurq6YBgGkskkHnnkETz++OOw+FQ2nZZNm38PHjyI5557TihLSFNmVH70l95JflcZkin6TrJNyO/vDj948CBefvllIcOkBOl7PlmiMqE8p2fY0lqfG8uysG3bNrz66qviukKQ058PerZXPsnlDMkYyS3L9Bxd1/HOO+9g9+7dOWXhlRfuPJK/U3z58l++LpFIiP3GbuR7dFqbsHlvnTGGVatW4Rvf+AaSyaR4MXoRrwQ5joNzzz0X1113HaqqqnD55Zdj6dKlwoIxk8kITR+JRMT0UDqdxgsvvCCmKOSEUdw+fgCmVwaHw2FxLEppaSmCwSDe9773ieu9MvhY0CQjjqGOm6A8MPhR8tSYWJaFSZMmIRQKiUZMFgSfz5fTAwffm9LZ2SkqFPXA2tvbsWrVKnR3d4sjFuh9GDdXtbhnjPr6erEOZ/BpCLJGdOeBxtccSOiojDXegFiWhY6ODrz55ptIp9PIZrNiH6Gs6EpKSjBv3jyx/09+L00acWt8movkgp4jf6fr3GkdCobTiEPjPh2vvPJKjBkzBgAQjUbx4Q9/GJMnTxbX2dxX6MknnyyMLeT3pTqr6zrq6upQVlYm/uq6LrzcEHR9IBDI8ZO4c+dOHDp0CF1dXaJhJKi+UTg9j8rF4VNJu3fvRktLCyzLQldXFw4dOoRnn30W6XQaBw4cgM1ncag9cqQOsNzAm/yMQHpXN/L7UAPe1dWFbdu25aynyPlE95imKZZD5PtJNvPJUpYbcVA+0D39KSaKyytON/menQ9ZedG9Op/NovBIJILx48eL3yjfKd0m9/xD7RC9Vz683leT6qV8L+Md5I0bN+Z4CnH4micta+geU4+UD/oPf/hD9PT0IJlMipFQMplEd3e3EEB5PUJOjMN7J5lMBlOnThXmyzNmzMANN9yAhoYGvPnmm2KERsNBcktlcq8SjY2NvQSeMsqd6XIBBgIBnHPOOTj//PMRCoWg6zpKS0tF73EghV0odXV1QhkPJ47joKysTHzX+DqXxjd8n3vuuSJfqJAp/6ZNmyamHymcBFjjPhbfffddZDIZrFy5UnRc3KxZswZr164VMhEKhXJGeoTmYWJNpFIpoQDj8Th27dqFr3/967j//vth8VOXbdsWm7IZN+hwCy19p2fR8+RypveUrx9OhtuIY8qUKfjIRz4ijumorKzEZz/7WeFthPFjeK6//npMnz5d1Bl49Hbl+rRw4UKMHTsWDh+ZyfWK7jf4FLZhGMhkMvjpT38qfiMlBFfD7f5QfFRmL7zwAtasWQPwJYqmpiasX78eGb53yeazQGvXrsXRo0dzOl5yGjOZDPx8OcML9zszxrB79258//vfF40xtScE5af8na6hv9SJo3TIRCIRVFdXA66OvfwML2RlR9B3r3sp3r5+l59PbQd4ue3btw/gbQp4p4gUGM0uQVIQyWQSP/vZz2DyJQxNUnRyu0LPlt9ZTguFyfJhcyOv//zP/xTGIIwr/Vgshs7OTs+yoOsAQP/b3/6GeDyOzZs3o62tDYRcSHIi3YkloQuHw2KqIxAIwOAL94wLIP1v2zY++tGPCq/YZO3mfp6cWfJLy1BYIBDA3LlzczKOfh9KNH6cClXe4ULjFZ46EtR7ZVIDdNZZZ+XcQ/Pvuq7j1FNPFYvzlAek3BhXaqQMsy5rLjmft2zZgkOHDokKT3HkazjcwsX4lGsgEEA2m0ULd+ScSCRw5513iikmx3GEAtMla1P66/UhmaJr4CGzkJTaUMsCuJXucBpxGIbRa4pPnkJmjKGsrAw33XSTWOtyN5rye1NeUD2lMPmvDI10HMfB1q1bRdiOHTuQ4GfS0ZQgIT+P2ggKSyaT2Lp1K375y1+itbUVhmHA5EZKJl++SKfTeOONN9DU1ATNZYVM75zmG93hmi6UoXygEUE8Hkdra2uObHrdR8+QrwOPL8OtYDOZDNatW4e9e/eKd08kEsIThzvufPJHsizDGENLSwu2bNmSt55R/O70e/1P+a9pGpqamsS5alRujM9yaXymg8KoXlmWhSeeeEKMhOkjy5k7PV5pI+R8ME0Te/bsQX19fU45uvOL/mce08k6NcadnZ1irYW8OzAuALLhgiPtKwBPBK2P0EOoguzfvx+NjY3IckMOeuiZZ56JsWPH/iMB0vSk3BDJCXV/KIM0aR3k85//PCorK4WgyxVnqGCMoaSkBEYfVkVDgcaFKRAIiLzcvn07HMnzgu3ayO01jy3n4UknnSQaI5r2OuWUU8SCLTXGtmvevKysDD6fD8lkUnRM3AKaSCSQ4icPUDhNPZDg67re68C/jo4OMco0eI+fcJc5fWhNSIZJFS5fpR8OAtz0f7Sg8qX3pnKR80AuExmN1yPZMbZcrrJsUR0lR83JZFLUf4vv5fN6NsWV5QZAlmXh3Xffxe9//3shg9SWkNzK6UilUnjiiSfEs0g2U6kUSktL0dDQgF/96lfYtWtXzjvSd0eagqR2S+M9f8o7W3JoTO9LsqS5rOAozV1dXfj1r3+NDRs2iN/8fr9wJCC/Gylmeh5h2zbWrFmDJ598Ujybwp9//nn86Ec/Eksrg4FxRW9KpzqAp8PkRmFUVjTDJi9DvPvuu3jkkUfQ2tqKUCgE0zTR2dmJrq4u8U7gedLV1ZWTVrksSY5k+aC/jY2NeP7558UARm675O8EyUomkxEjNt3k03tBfuDf+vXr8cc//lHMFVPjSAUrNzLgiTRNU0ylhMNhRCIR+Hw+HDp0CM3NzTlCQddTwdNfekk5XrkSeUFCBgC1tbU5SpQ+QwnjI4qhjleG3hn8/UpKSlBaWpqjsOQPIeeF3+/HlClThMIyDAPnnXeeKCPHcTBv3jzceuutKC0thaZp2Lp1ay8XMYwxjBs3Dn6/H2+99ZZo6CBVyK6uLvzpT3/C6tWrRUXJZrN46qmn8OKLL4o9KcFgEFVVVTD5njaTH0Mv+yykd6DyprLUeQNNHZWJEyeirq5O3Mf4ZudFixblKBTGGGpra4XrraFGHsmMBnL5u/+nfBw/fjwmTZok8pDqBckPdWDpf6q/VF+pzra3t4sjSKicNGm9h0ZETJqZoe87duwQPX+agqZyl8uQoPSZfNsHOTKgtDuOg+rqajQ1NWHlypW9LAPpOrpWDpNxuCea//mf/xHrmY2NjYhLRw5l+X5Kjct1JpPBM888g5dffllMeTNpVgMuIxO6l55t83167e3tOHTokDCMoN8t7uLLfaxVIVA89InH4yKN9LtlWXj66afR1NQk0iy3aXRvV1cX9u3bJ4xZTNMULgRJ5hk/heKOO+7Ali1bAGkbjZwOuZxl0uk0WlpaYHKvLIQmLRvJUFxHjx7Fz3/+83/M2NBQMhKJoLS0FM3NzThw4EDONBlFFgqFMGfOHCHUFCljTJy5dM011+DMM8+EwQ0PKBE674FXVVUhGAyKHoA7kcTUqVMxadKknIqU70MFRy+OPnqex4I2Ap44ZKiiV1ZWindzCwO9o5wP4XAY3/nOdxAOh2Fww42ysjLRu8pms6itrcX8+fNFwxOPx5HiZxjJz6C/mzdvzhFcgvxj0mZITdPQ2NiIH//4x9i4caMY4YErVso7R/J5SM+gd6BGg+Kj52qahqlTp6K8vByXXXaZUFaapuGss87CKaecIq4FT+ell16Ks846Kyd8qBhOI46BYhgGFi9ejNraWtFo6rqO6667Dtdee63IK+qEuvMJPP/PPvtsnHrqqUI503WmaaJL8thAMkKN9axZs8QsgCyflmVhzZo12LVrl3iWbdsoKysDYwwdHR29juBhksFYKBTCeeedl9N5IkVCIwn5eXS//F3j9UKut4y3W3v27MEzzzwD27bR1NSEP/3pT9i3bx8saQMwuWUy+WzTnj17xPoMkc1mhXGTxdeUHUmREx0dHbj//vvxyiuvQHMZKBH5wvuD3hP8/RL8FBH5+bbkRxGudkMub5Ifyj+bn8GW4dti6BnxeBzbtm3DQw89JJQdQc9NJBLC8TDJB+UdlYPcXqf5+iiN9Oh6xmUnm82inh+YrNOP4XAY5eXlQqkwl4cMja81TZs2TWQuRUgHGWqahn/5l3/BySefDPDMqq6uhmVZiEajuPnmm/GZz3wGNTU1WLFiheiNuRsXTdOwdOlSLF26VMQjvyC9sFxglCH01y04Q0VdXZ0o2OFA13UsW7YMoVBILLBT/lNvSdd1nHTSSZg4caIoXHlaLRAI4KSTTkJtbS0mT54Mg68/UjzZbFZMBwYCASxcuDBHcGWBob1OGe4XLxwO5+Stw83j5fJIJpNobW1Fd3e32O/j46dFU1mCL8bL6Q4GgygtLcW1116LiRMnivQQlC6ariGoUZZHX0RpaemwGVpUVFQMW9wDxe/345JLLsHUqVOhSUY1ZGZPymX+/Pm46qqrUF1d/Y8GQKp7fr8fixYtwvTp03NmXT7ykY+IsgP3OkH1lpTI9OnTxVSUJo3Menp6xNYNJm1DoZE/NYoysqIxDEMcYaTxNeg1a9bAllycecF4w0jtkhynLN8mN+X/+9//jkwmg+7ubpEeg68JrV69Gj/96U/R0NAg2h6H+/d76KGHkEqlEOKeOMAVGM0y0V9qv9LpNA4ePIiOjo5edY6+U9rdbUyGOx3I51PQ5i62ZAUqt5sUt8M7j+DvSO2CfA3dQ3+pftN3ukbn62RPPfUU0vzsL3ovxpeT2trasG7dOmhSZ9TkDhf279+fUzaMj+qeeOIJoWQzmQw2bdqEV199FUl+XBPlmS4LsCyk9KJ0MYXRd4LxOV8/twajhlHjjdaZZ56JL33pS1i2bBk+/elP4/zzz0c0GsW///u/44477kA0GhX3EprUA3FnLn0I9+/0lwRnKNF4BXLnwVDi9/tx4403Crc0pLTgeteLLroIJ598cq/8AE+nzj3UT5s2LUfhMF6p6Jrp06fjkksuEflN4RQvGecAwPTp0/FP//RPOZWC5IRkxXEcxGIxAMDu3bth27aYnqb3oOuz2Sx80kGkOt/H96UvfSnHm7wXlE45rRTuvm646OrqEhXqeCAgnUoOqfGR/589ezYuueQShMNhONKaKkENmsENZEKhEL785S/nTD9PnToV0Wg0p+wNj7VRTdOwbds2PPvsszC5scb69evR0dGBiooKUd41NTXiPoqP/tektkDTNGzcuBG/+93voPHpMMbXP2Vk2aT2jBRZIBAQ30k2UqkU7rjjDkBqwOl+xhgOHDiAu+++G0eOHBFpcxwH27Ztw913341YLIZMJtPLOzy9Cz2LnscYQ1tbG7Zt2yaMVKj+0H3uvAQgPGlQoy//bvE9Zc8//7x4Zz/3pOIF3U91CNKmdvdzqaMg/0bppXKVFTUh56PlMnzr7u7Gyy+/LA45lkny05zpPbq6uvCLX/xCdBYoHbZt/2MKkQRB13VkuRNPCqeMp8TQC5Og0wMj3MEoZTwJy8yZM/Fv//ZvWL58eY62D4VC+NCHPoTJkyeLhpiQC5zi1Ll7IepJUhq8MryyshJLly4VTl6HCsaYqLjDCY1WSHkFuJNkUgA+vmmS/qf8kfOM8oUxhlmzZuGss84SIzqLH/To8/lw5513iqk3eiY5cKVnUT6PGzcOp556ak5jRYJElTWbzSIej2Ps2LHYs2dPTtr8fAqR5M3ka6cUnzyCclfQwULyMxzIyv14ht6f5IMaGbmeuesc/dWltTNqxMaMGYMQ36ZBvxmGgVQq1eu8pqNHjwq3bpqmYefOnUilUuI4GJ13bOgekiNKN8kPkUwmkU6nEQwGRcPvLl85vfR9//79OHz4ML7xjW8I+aNrLMsSo0eKK5vNYvXq1cL6Msj9ktJIkvHOJcluPB7Hs88+i82bN4vG2ubTXZA6UozXv3379uGll15CKpXKeT+K2wsKp+spTvB3PnjwIPbs2SPeORwO58xUgI+eg8FgjgxQHZHjk3FcbgbBFZf8m6Zp2LNnD/bu3Suukd9ZlgnG5SXILWodx0EikUA8HsfatWuxbds20c6D52NXV1eOPmpqasIvf/lL6DSUJ0Fdt24dEokETNMUJsIkyJC0NN2T4h6qgy6fahrfiLlixQqMGzcuJ5xg/AwnsoTyykAKi0QiuOyyyzB16lSAvxT9TmmjvxUVFZg7d65Y/B0qmNTIeqV1KKE89vv9qKmpgZ8vtEajUTGFU1tbK0av1OjI+aFx7x7nnHMOzjjjDAQCAWQyGWEZ6vP5MH/+fNEbpnOmli9fjh/+8IcoKSlBiG+ahuS1QW40SIDlRoNcUQUCAUyYMEE0UtRQOVyJHT16FIFAQKyLynlK70LPod/kd5S/UyWUKz/9PlwYHq7NRht3eigPqXzc+ei+nqDfvPKQ8t7r2t/+9rfiGou7mJo1a5aYUQBPYzQahU9yJiyXG32nvyR/9C4UB/X+wddNZM8NlD6fz4fa2lqxJeWll176x+I/b+9ImRGUR6ZpYtu2baivrxfXkrWiF5lMBq+++ireeecd9PT0iHjor5xfjLtYi0uHcsq/0zv0hbtM3OnSuNs+UmBUZmRbYHuYrcv1SI7H9vDXyCRl5PCO6+rVq4UCc6dHvsdNLBbD17/+dTz11FO46aab8Pzzz4v1eId3cgzXVGcymcSaNWugBwIBdHZ2innVpqYmZPnmxO3bt+f0VvzcWpH+1zQNqVQK7e3tvRogcEUiH7RI0P+MN3iyMpKhxIP3HKZNm4ZoNJpzrZyRlPlugRkqNE1DW1ubZyEMNZqmobq6GsuXL8d1112HGTNmwOfz4WMf+xjmzZuHYDCI66+/HnV1daJwCapwhmFg+fLluP7661FaWopAIIDW1la89tprQsnIwltZWYlIJILKykrMnTtX9ILoY/AN4hTOuPBSGdL/PT098Pl8mDp1qljPg8uzeTKZxMqVK4USpdMHIDUijFu3lZSU5LwfeP64G1IqF7qfrhsuEolEr4Xr0YYae8oLykf6UFkSfSkpkis5n6meyff4pc3t1Mibpom33noLe/fuxbXXXot/+Zd/EfXT5/OJ2RGSKfqto6MD3d3dOXVMHuVSuM/ny1Fga9aswX333SfW3JLJJBzHQVVVlVjDo2fIG69JZil/KD6Sa0gyJHuLIOh/y7LQ2dmJ3bt3Y+vWreK9vBSkzY8boal2Usb79u3LcYruLhMZdzq86oFXJ588FlE9pHyQP/R8+l3OF7imOKmTonHjLVJ0+eomJIVJz7BtG++88w527tyJ7du346233hJWmKTMKS45TsMwoMfjcfzqV78SVjGUgGw2K0wt6XPDDTfkeJUnSNG4M0J+qPxgCisrK8PHP/5xTJ8+3bOBku8zPHq79BsVNgm01/OGClpQHgkmTZqEm266CZdcconwAHLjjTdiypQp0HUdc+fOFQ2BnP8GN9rIZrOYN28eFi1ahHA4jE996lMin23JqAMe+W1ZlnDpRAqEftuyZYvYHkFxyZUhmUwizM81C0gbrOURGHiDEOSnGlMjSHJFf88//3xh1Qqp8lA5UyWg8JGkvLz8uDHikPH7/bjoooswY8YM6FwRUSeB6gp4HstKisoQri0CjrTGRfJF1+mu05x7enrEQbaPPfYYDh06hPnz5+PKK69EbW2tKC9SStTQa9xDzKpVq/DOO+8AUv02+DRTY2Mjurq6oPH1dUtae3nnnXfw2muvCdP6zs5O0S7RXkPGDYzIyTD4yMnmU2AkQ/TcrGQN6/CNzPSd3pc+Pn4Iq2VZqKioQDwex1NPPSV+l+XasiysXbsWjY2N0DQNzc3NeO655/Czn/0M+/btE51BSocMKRLKR5tbBzJpipd+h4ci0fjaIbXzhdYZ+bn0l/G1POrUUzroGjkt9D6xWAy7du0SMkd5I78zrS3LccnvR2G2bUPPZDL4wx/+kOO9nQSXMYaZM2fife97H8rKyvDP//zPOeaydG2YHz4oZxTjlcOrEIjy8nJ84QtfwPTp00VhyPQXhxxuGAauvvpqYVGX755jQePHqdC89nDj9/uFItC5xZdPWpOiv1Tw9M6GYaC6uhof/vCHxVaEYDCID3/4w9D4YaCLFi1CSUmJUD4ExQUAM2fOxGWXXYaKigrRk8xms3jiiSdw+PBhIS9uBWKaJkKhUK/9RAY/nYA6Gj6+Dke/k9zJaTnttNMwadIkEebz+TB79mxMmDBByCEJtxvNY5Q2lBxvRhzg71xaWooPfvCDmD59OsA3o3/ve9/D0qVLhSKSy4tJPW76rkkbW0nOKB8D0tYICqdPQ0MD7r33Xth82omcgc+fPx9XXHEFfD4fTj75ZOEKTY6XMYZDhw4hFouJMCpDxhieeuopcRQIjW5s20YymcThw4dhcuMkklU5jUQ2m8WRI0fE+5Lsa1JnSOOdYblBZnzaz8enPSluIp1OIxaLIZ1OY86cOejo6MAdd9yB5uZmNDQ04A9/+AO6JD+SpHg1TcOhQ4dw//33i5OO5XS5oXDGZf6vf/0rfvOb34g6RYpGcxnUEdSJlNfm5HKQywPSVDClV/44/Pwx6iz08AM93fESNjfh/8EPfpCzliiXldf/chxUTvSbTgLg52s7pOXowhkzZuC0006DwfcTMT6FsGzZMowZMwaf+MQn8OMf/xizZ8/OeRAki6Z8uBPmda07Tjf0e5Afcrlo0SKRcXJGDAWMr9kZIzQCk5/j3rvTFzrfAP3Zz34WM2fOhM571yQ00WhU9M5lQaPyorWuAHfo6u6wgM9b7927V/QAM9KGyWQyiZKSEjE1pPHereEy5wc3hKBGElKDCGnNTc4Hv9+P73znO1i+fLl43vvf/368//3vF1OVcHV+hlIGZOT1weMFalyz3KsO5eecOXNyRosUTksCmqbhggsuwBlnnCHqDZUbfSgfdV3H5z73OWG4ReVE15NlncYV2pgxY4TMRSIRLFu2DGeeeabovJCcmNxfJnj50V+K9+DBg8J3ppzudevW4e9//ztsybRel2aJotFoTvoZHwU999xz2LBhAwzJhZLDFZhlWXjllVeEwrJtWxhckOIkZWTbNvx8jZeUKP1fVlaGRx99FLfffjs6OztFXaQ8ZpKxCXUuKJ2maaKjo0N4uaFngbfTf/3rX/Gd73wHr7zyChzp7EX6UP7S/7o06qFrx44dKzwYyb/LZaBJ2yLofxqN0rU2919Iz6KyoXgofMeOHcLQhPI6HxQPk6atweOjDoY4kRm8p0bGGJqmoby8HLNnzxbrTnSzxhcDI5EIZs+ejcWLF4thukxfiZPR8igvSBUtX1yUdp1vlPbzNRr5hYcKxvdFDXW8XsjvHAwG8clPfhLve9/78jaYVNhyftExM+7rqJPiDqe/8nc3JC9r1qzBTTfdhN27dwsfcHR9LBZDULIYBVc81OhQ5aG45DTTM/x+P2655RZce+21Oe/s9/sxc+ZMVFZWYvbs2SgtLcUHPvABnHPOOb3SS3GSjAw1PskS9HiB3tXdOLjzF7zOUD3x+/34xCc+gbPPPlvcS3mncQVCshQOh8XBqzQFLMctK4s5c+YIYyr6jRSW7vLQE4/HsXLlSjG9Rcjppcae7gXfHExOemXFwrhHCXJWS/JG8R08eFBsiKW0OXyEY1kWjhw5Iny2Mq5oSKFR/qRSKTz//PPw8dmEVColps5DoRDC4TD279+PtrY2PPbYY+I5BOUtpa+HH8abTCaxatUq3HTTTdixY4e4h/5qfIvC4cOHEQwG0d7ejjfeeCNnbZtGYD5uWeyTRtRp7kTggx/8IGbNmiWeT3lBStrhStOUHE+QsqLfCZNbFdPeU4LyO5vNorOzU1iwUofafR1917lV/I4dO3DgwAHxu6Zp6O7uRltb2z8UGAngZZddhvnz54uLpk6dissvvxwVFRU5AiDTl6Lo6zcZWfi9oAIpJC6Crh3IPf2hcSMO6gUNJ5o0MtJ1HRdeeGEvTxMy1Aj0B10nCxjhlc9ynBq3bBo7diy6urrwzjvv4G9/+xsOHTokNoCapondu3cjxDcWk8wsWbIEc+fORVtbW85eDqq87vcyDAPz5s3DpEmTxLUyY8eOxe233y7W6GitbSQhH5DHI8w19SKH63z/FeUp/a2oqBCdDFIwOh8hkQcecDkoKyvDpz71KaGMKJzKm55Nv8mNPn2n30kmLcsSTn6nTZsmNjvLMkkNLNUNWZYZbxRpukvXdcyYMSNnypPiAO+AUHqZS4Hp/EDQa665RnSgqHNM03SU5nvvvRcpfg6ayU9SB88P2vifTCbx8MMPg0lrOfI70fc333wTzz33HGKxGJ5//nk899xzwqdoR0dHzrPprD9N09DR0YGdO3fmTA1qvF6Fw2G8733vE/nk48ZUOt8rSv5F5Y6/uxwpLo13gDdt2oRIJCLWVW3bxrvvvova2losX768l0w4joP6+nqx7gfJyEQuA/rQ74lEAi+88AJ27dol7gP3rL9jx45/eOKYMGECgsEgTjrpJNTV1Ykess/nEz1pLyiTZOGAVCFoGN0fFI87jHEhlLV8IcjxudN2rIykEQdNgUHapOr1PhqfZps3b57wFJLvWhJKEkY5r+T/5Wscx0FNTQ2i0SjOPvtssX5Bvc+enh7s3btXmAU3NDQIufHxUdjSpUsxdepUVFRUCKOQYDAopv3ypTcfwWAQ48ePRyQS6ZVuOe3DyfFqxOGeipLR+B7MG264QZw3J+eVO/8c7kLua1/7mpjGJiVy+eWX50yp07ll5DqIGmY5HbrkM5BkkdJLGJJbLBlbMlgI8j1EBh9hQOowyx3MTCaDmpoaXHjhhTledGy+/0ue+vbzgztpGvDMM88U3oAc7s/T4BaDdI/jOOjq6kKEu+LLZDJiFsvn8yHMz1ujxpjuoTaN8ofyP5lMitFNT08PLO6J/6233sI999wj0mbbNvbt25fTFsnxQjJ80/hUMeVPMBhEmB+Wa3t4NGHcIz5575eno3WumBoaGlBbW4slS5aIZye5k+dQKARHOseLPlR29G608TsfCxcuFPdZfK9eCXembtv2P+QX3NqNhpvgfgjpu/sBlNH03S2g4IK0YMECfOELXxDujgYLZRg9y+v57vjljB5KND4CcwvKcKBLUyQy7nel93QcBxdffDEWLlzoeZ/cUJFwERSnnJ8aF3TqlX3gAx/A0qVLRW+NphiOHj0KSP7fNKnHZfNeHlUix3GEGa+maTj//POxYMECOHxRO81N0r3KdLDQOw8Hx5sRh9/vzzknLh+6rmPevHm9pv7gynv5L7mQc/haDU1H6dIev5tuugklJSXCIe748eNF2ZNczJkzBxdeeKFo1Ei+CLmsHNc0KMkVya+7XDs6OrBmzRpxBBA9d8GCBbjjjjuEBTX4cklNTY1QZEePHhXGEKeffjpqa2sRCARQXl6OyZMnw3EcBLi1rDwKonxLS0YcdF0gEBAjWrpu586daGhoEGl2vx99Ojo6sGHDBvEONNtBSsAwDNFuU+NOMx50j5xHchoAiE6k3C7I3w8ePCgMtbLZLN59992cfGd8cEEdVMYYxo8fD3DH6uQEfNmyZaKDYVkWDH5C90svvYRNmzaJ9FIaiWAwiAsvvBA6X3PUeIfitttuE8p32rRp//BGD0l7X3TRRbjtttuErzTHZXFDc7skvJRZbiZMmIALL7wQpaWl7p8KguKkjHUjv7ibfOHHiuM4Yj5/uJ5ByALo/hChUAg//vGPc/bGLVq0CHPnzu11Lf2ucQsrWVj9fr8wSKiurkZ1dTXmzp2LW2+9FWPHjkUkEsHcuXNRwv0aUo+N8QaoqqpKhGuahksuuQQ33ngjbrnlFpSVlYmGSJNMlQ3DwIwZM1BTU4NAIICPfexjvdb48r23/JuMu5LK34eDIF//OV4IBAK44YYb8nqLcecPNSjuukT/69KaEoVDMi6yufECNWRLliwRU2ZTpkzBuHHjcspT13VMnTpVWB2THOi8p67rOsaOHSs81ZNyo+tk2Q1wrzGUfsMw0NraikcffTTHObDBLXDHjx8vRvuMMYwdOxazZ89GJBLBhRdeiJ6eHjz11FMA7/mX8oNxp02bhg996EMIBoOIRqNCiUNqM+n5Pp8P27dvFwYOM2fOFOtL4GtA69evx4EDB0QcbqiMUqmUWPdhvJ6B5zmFySdwy/fS/7JyoQ9BIzvKX/k38PoVCARw8sknIxgMCt+kdJ18vcFHenRc0plnnomLL74YwWAQCxYsEGl3+GjesiwcOnQIADB58mRofC3x73//u1j/pHTTfTp3e3fFFVeIkXBZWRl0mtcFT9TVV1+Nyy+/HMFgEOPGjUM0GhUZomkazjjjDHz5y1/GKaecIiLyyoChgCoR8vSk5cKS0Twat6FA13VRCYYjfjf9PcPn8+G0004T02g+nw+f/OQncemllyLo8owCHl9DQwN2794tyg2AcPCqaRr+8z//U6x7nnLKKaiursb3v/99XHnllTmCSAuwVVVVWLRokVCAoVAIixYtwvz588XBmnI50doY/e/z+VBSUoIPfehDwjJtKJBltr98HCzyrMXxArkAk6eEZNx5IecTQXJRW1srtmHkQ+cjMHe8FEb1lj5Un+kZcr32+Xy45ppr8IUvfAEa7+zYfEqPFKls/aa7rGu7u7uxc+fOnGfLz2eSswMaIbW2tuLqq68WU8FkrMAkpUR5StuF0nymwJaMHI4ePYr29nbE+VmKwWAQixcvzmn4qR5QR4+mw+Tf5LyBtOZHypIUuOayzqXr6Ld8+U7fg3xK0Qv5HuqUlEguqSgvwZU0HaZKeVtWVpazxkqySNOfpmkiGAyirq4Oc+bMEaPa3bt3A1K7LpcbQe85ZsyYf8w2uC+qrKyEn5t/XnnllZg2bZrIWI37Qfvc5z6Hj3/84/jYxz6GhQsX5ijAoULORK/C1TQNVVVVKOGHyMn3yZWC/g4FjuPkuKsZTqiSFAK9o67rqKurE0Y3bhjv2cXjcRjS+lppaamY6p07dy5qampE5dD5dFNdXV1OPDSNEgwGUVFRgbFjxyIajWLJkiVYvHhxTuWQy46mVzReAWfNmoWPfvSjGDdu3HE1mimEWCx2XE0hylAjKSP/L9cT+QNeToZh4JprrsGNN94oZlH8fr8wnaf7qfdNDQt95Od4/a/zziDJCdXxurq6nH1/cnyM78Vyx0XKzbZtRKNRcVYcyRi4HNu2jYkTJ8Lgoz6bn6QxZcoUBAIBsR2E7pU7U7quo7S0FMlkUpzE7PCZhWQyiUceeQQbN26EzackNW7FLXd4Nb7+SO9z5plnIhqNCkUIAE1NTb3aF7qeFDjlvd/l1o7Kjf73+XyYNWuWUM4+brRiWZY4oknjPk7HjBmTk8/g70xTkxQnPY+uOfnkk8XWi4Dkao7kgf7XJNN9utfgo2OSB/kZFKZL7T/dS8+qrq6G7vA5bfkCijwajXr25KPRKCorK/GVr3wFZ511lhiqekHxuaFwTdqQS4l1447btm2UlpbiM5/5DObNm5eT7kLxup4yJx+6rmPChAlCcIYLmlJbsGBBjiLwgtJM+dcXVCEDLoMQEjh45LUbega51dF5L7i6uhplZWU499xzMWfOnJzK75dcDYVCIXzwgx8U045TpkzBihUrRC8XHmXj/j8fJMMjBRmk9Jc+r9+HK8wwDJx00kkYO3Zsn3lBv/mkNSibT0/5+WbX8vJyVFdXi3K74oorxBobpKkduT5Qo0Pxyo2QLinM8vJyfOxjHxMKkOSX5InkuqqqKuekdWoENT7FpWka9u7di2w2C4MfD0QdIUoHxQVATGkxrvjq6urEmkpPT49wqUfvTPlEz+/p6UF9fT00aS+UYRhoaWlBOp0WU5NB1zYSNxo3nnPn/1tvvSXccVGa6X1SqZRwPwU+m2HbtsjDqqoqkSfgZfu5z30OU6ZMQTQaFbMos2bNwumnn44AdxJ+3nnn4eyzz87Je423yzRSy9fmBfiSEuUXcc4552DKlCkiLaTYDd7ZoXfWeNtNnQr5vcHzVm6b6KPzaWSdhtJpbgLKuHuQsWPHIhQKiUPaDh8+DMuyEI/Hxc5rOtMmmUyKw+7q6+thWRYSiQQ6OjrgOA4aGhpg8k2KdCDk0aNHhckr7V0gbyCpVApdXV0At8ph3BKFeru05+Pyyy8Xa1Lkw5Gg+Cy+i5xGTs3Nzchyj/sU1tLSgix3G9Pa2grbtoVApvnhapZ0Umo2mxXu/tva2pDJZJDJZMR1ra2tIj9pn0lbW5uw0mloaIBlWWhvb0cqlYJpmjh69Chs2xZ59q1vfQuzZs0SYclkEtlsFg0NDXAcB+3t7UgkEnAk5dPd3Y2enh6R57Zto7OzU1g1NTc3Q+PngZFAHT16FA7vIZGQ0jN6enrQ3d0N0zRx6NAhUQ6JREJsKK2rq0NNTQ18Ph8y/EgJW7IysiSvCCb3JPKv//qvqK2thS5tXrX5NAw9o7OzEyY/kZfCurq6xLuRjNEz6AC8ZDKZ40ZI41MW7e3tME0TTU1NYLwXSmbJzc3NME0TqVRKhNFJsel0Gu3t7SIsk8mIsM7OThw8eBAW94BA5+KR2XM2m0VLS4uQkyz3Zu4OM01TyFN7e7vYjuAOo7SSTKS5dVZTU5MI8/v9+P73v4+pU6eCcWMAkrHGxkYRn8mnc1KpFGzXOVKtra1iFESNtK7r+I//+A+cfvrpIl+pji5ZsgQf/OAHEYlEhDxmMhlks1nouo62tjZAGiEYhoFMJoOrrroKlmUJmaXfqNHy8XW1pUuXQuNTb938hG/GFVA8Hserr74qZiyoHlND5/f7kc1mhQVgKpUS5ZVOp1FRUSHSl06nxbYIut/kJ4dTvcnwAx01aTQAbnmp6zpmz54tzmTLZrPCko+5PJ3oup4z2jt48CDefffdXqbyVC9M00QmkxF5btu2UFZtbW144YUXxAgZXLGQkYdpmigrK8PFF18M27ZxySWX4AMf+AB0XUcikchRQqREHMfB7NmzccEFFyDADUUoX9zQ+1D7Yds2Fi9eLBQYfWj7jMm3BBh8itbHlxEoLhmSBTkeSmcqlYJOvR+Na1zS5N///vexZMkSBLnrfepp+vmCv8Zd1jC+wEgjtXA4DJ33fGh4SFpczqjy8nLxPHpxGl6TUtUkdzZ+vlbH+DEBdC/1cmg6Qn5BMjqg3yktGhc+OX0URr2IAJ/q0vlUh6ZpiEQiKOMnG5N5LI0ufD6fWIui+HRdFwvqAcmtC6WL7jUMI8e0XM4/n3S0CqWF8pnyA7zgA7z3qfO9H5ROP58CoDyiPCPBobRqXDhJmKgc/H6/KGtK45YtW2AYBi699FIxCl68eDEWLVok7iOZIBmhdFFeUxr83HqqtLRUKB56D4rD4L1r8BkAjcsrXRfia3D0oXyhd6J8pXLTeA9e13VRbvRcKmsKo/KX5c7PN2bLe5XkZ9C9dA/JEj2P4iXk8qf46DoKg3SYpBwm32sYBk4++WRxAkSQG5r4uEk3vQelheoVyQQAnHTSSfjOd76Dk046CQZfoykvLxf+OAm6f9myZcJijMI0XsYkk+ByoLmmlILBIG688UbMnTtXxEl/db5wX1VVhQkTJqCiokIoCrkcdF3HpZdeihBfX6XnQ5Ibuk4uD4Nv6KV88XPXbXQvPYdksLKyEqeccoqoB7bkQYPcKNl8szOVB+W1wU2/29raxLuFQiFxWkN9fT0OHjwo8siQLHdt3uk1DEOMrOm9HD6QePXVV0XHXuMeNi655BIxZWrbNhYsWIAvf/nLWLJkiTD88vH2FVyOfvKTnwi5O+mkkzB79myRp5Q2+tCzwOsZyZCcB3JdhLRVgbk8kJx55pk5ciLfQ9dROOMdoUgk8o81MGpEKAIqKLJAozCqtFTxyFoowF0O6dwbhs4bghJucl1dXS0ynBpMutfgh+ZRJTG4MgjzkRU1OLqk4cvLy0WGlZaWQuee1N2ZRZ4o6DqDW65QhSVlVFpaKgqSwioqKkSa6XtpaamoABRPOT/tVr43Go2KhpDeySuslHuI13VdOOUt4S6YNE0TUyd0r49b/Om8EQxISlF37auqrKwEpPN/KB65UZGfoUnTsDSdR/cyxkR8VMmpZ0l7sQzDwJe//GX80z/9E/y8k0ONLQn1okWL8JnPfEasqVCZ0v2UL0FpvwdNYdFzde6c1eByQ4qG0uznylZ3mQdTI19WVgadNygURuUvPzfKj/sgmaXyorpSVlYGv9+f0xEjeaN7Se4ofRRG15XwDdh+vz/nXipreg85jGS/pKQEQd7BoesoH+X6RWGQ6qscRnWPOgDgex3nz58v6hT4dCmkhkouhyi3ztOk3jndR9fJaHz9mvHO49KlS1FTUyPKihopatymTJmCBx54AJdccgnGjBkj6gflia7rYtqaZMXhsxKULpLjEO/EUXsXiURQXV0NH69bZDJPcqhzpQdu1PL1r39dKDlqSGtra7Fnzx6A5yfVqUAgIDp+Gt9s/OSTT4r7Kyoq8F//9V+ijaMOSAk/xoj21e3YsQPPPfccAoEApk+fjrFjx4r0Me6guKenR9QP0zQRDodRW1uL8vJynHzyyZgwYQLmzZuH97///Rg7dqxIeyQSEfnt9/uxfPlykUdy+0J1lspP/k4fyn/GXe5dcsklOO2006BLAwu57CBtlaB3hWsURnIa4O0wPdsgK0T5IhIaOQLwROquRXmKSH4ZmXzhMiSs7u+QXoKeK2cU4wrNC684ZOTM7CssHzTFR/T1DDmNXs9wf6f/va71QuM9tAkTJohGwis9cjxM6gXLUFrpfrrHnUa6hgSQ4jP40e/UQaHrDcPAkiVLMGHCBEyePBlLly5FUBqhuuP2wist7t+8kO/zuq7QMC8cfj5UNpvtM319MdDr+8P9niRH7t+onmtSL9pd7gTdR9dQ3ZProCyvdA09hz4ab6TIYILkT46T0lNaWoqxY8eKBjQcDmPBggXCUMhwbXym+yieuXPnYuzYsdB5J4ae474WkqIFbwepU0P/+3w+TJkyRZjhz5w5EwZfr7H4ms4555yDWCwmFJ+c1xqvA2PHjgX4NCVZ7WncRyU16pMmTUJlZSXOO+881NTU4JRTToHG3SbRlNuyZctw5ZVXgvGZKIf7iNy8ebN4li7NsoRCIdx222248MILxbtT+txtvVxelJcEdXjl96KPLAfgdcPv9+Pqq6/GaaedJtLi8Glhuo46n3SvOy02X+ZoaWnB5MmTccEFF4i2g+7RDd57JCGTP/CoFCOF/DIDxes9hgqycHIrgNEiGo3ia1/7Gk4//fScyuhFSUkJ5s+f3ytv5bKWw/J9DG49WFZWJkZ8Pg8v3RqfrrrzzjtxwQUXiF6v3EC47xkM7vTlo7/fBwoZcZwouPOJGjPkqW/u690fh0/3ktyVlJTgmmuuEZ0bSFO3hmHg4osvxmc+8xmUl5dD5yPGyZMnixEOuBydeeaZ+PjHP44KftCqnE6a+tKkxpruY3xUce211+K0004T19D11CjTu/qkkx3kOOV307iTY7njBT6tdfToUWQyGZSVlSESicDHR9jg+UnfA4EALr74YjGyoVEvpYmeTXvgFixYkDObQgpA42cEjhkzBnPmzMGpp54KXdfF2p3Gp2UpfaQw6urqEJW2Qw0UymdKq85HvJT3jCs8eVSl85E35Rnj684UT319Pc477zxcddVVwrG43KZWVVWhrq4OsVgMa9euRW1trZgOpfh8Pt8/phCpoAb7gsMBpWewaRrsff3R3NwsCuJ4IBgMYvny5aiurnb/1Iuqqip88pOfFD0bmYHm9cKFC/GjH/1IOH/Nh8anSuTKT+EnOsebJ47B4C4HL0UmI1+v89FSCV8fDwaD+OIXv4gJEybgoosuQk1NjbhH48f4jB8/XjRic+fOxVe/+tVeZu/jxo3DzJkzcxQhjRgD3K8hNWCkhEpKSkSP3s/Xa+T0Un01+NTTFVdcgSlTpiAoWVn7+BQtLRlQY0lTtcFgUMix4zg4fPgwkskkKioq8MlPflI09PIzNd6+hvg6qvyRlQKlzUuparzBpg4guOGM24F1KBTCRz/6UXz0ox8V9xVCf9dSXlBn8/TTT8ett96KgDSFS2lPc8Mitxzp0og1nU5j3bp1WLhwIa644opeW7F0XcfixYuxfPlyONwgSHd1ZGbMmPEPQzAm9QT6eonRQOMC7c6MvtC4wA0HjA/bj8d8or/50kYV/qyzzsKnPvWpXvu60M/9hMYrXiAQwJVXXin2j8kVvhCoQp6oaHx65kR+B/DGKRKJCOe5A+mYTZgwAT/5yU8wb948UU8Z32R61llniRFUPpkoKysTa1fUCTKkfVsyFEc4HMZFF12EWbNmCbm1LAuhUAi33HIL/Nwo5ZJLLhHPhzRKcLhB2nnnnYeJEyfmzAg4joPLL79ceDOhkQ8pmlAohAw/E4yU3KRJk7BgwQKcffbZoh5QY0vvRW0r5UW+eiY/S5eMd8iyEtKUJ/1PcVF9+vKXv4ybbrpJyKXXc2To/hBfTwbPK4qT8pie6/P5sHjxYtFxlfO1srIS9913HxYtWiTKUX7XdDoNnSs7ykeNdwZCfEsAeNmPHTsWY8aMEXJF8Th8evKSSy7B1KlToVOE7ocdDwwmPePGjcNVV10lXJQMNTQlcqIydepUXHHFFWJRXmYg+RWUjiWHR4PTFz6fD+ecc84/fJkN4L6BQJWK0jfUMA8/ficijuNg8uTJuOSSS4QhTF8YkjVoSUkJFi5cKKb1wKfY//u//xuzZ8/OaXhk3P9DajT7y89wOIxvfvObWLhwISC1EYFAQGyoBYDLL79cGKHQ8+T4SSmQopk9ezZCoRCmTJmCadOm4corrxRbBkiWKI4pU6YIrzHkI5Sg+Ol95O9yXaF0y3mhS4YT8nUkx+Xl5SgpKclJCykQksfS0lIx2pMVkAyFkTUgjZyvv/76nHvouyYZaPglYyr3O5SVleWMvOFSsIcPHxZOFCBN+8rtiJwfXpACq66uhq7r/98TBwbYCB2vjBkzBtdee22/GzkHg8YtifIJxvGMxiuvwa33vPLGK8wN4/u5KD7Kh4HITjAYxDe/+U2xCX440LkJNlmtDQfxeBzZETqde6iR63w4HEZVVVW/ZaHrOk455RQsW7as1ywHtSORSARnnnmmMCqS45TrjNzuyGF9yZHN9z7V1dUhKHmjp3jkBjcSicDPTeUJ3bWxGvyZwWAQt956q4grFArh05/+tLCg07mHm7q6OpSUlODaa6/FRRddhAkTJqC6ulpYqWrcWs89ICDfoqQE6Hd3B8vPrQAXLFgAJhm2WHzz9qWXXpqzhk15Re9N76XxvVZ9EQwGcc4554gp3enTp4s1JrIIlNNGeT19+nQsXrwYzMMQSOfrWHL+OtyL//jx45HlLr/o/al8xowZIyzVqSy9ZAOSUifECIwy+3iB0kMZF+Jmvv2l0SeZKQ81jDHhoDRfRh/vUL66001h/SlmwzBwxhlnYOnSpfBz6ylNEuJCRjy6rmP8+PFiYdmdlqEgGAzi5ptvxooVK3IasaGksrJSLLSfiMh531+5g9etCy+8EJdcckmO4YUbkgdweZGVRX+QHLk/NGo///zz4edm8tR2EdSOUc+eGku6huKi9V+dj3gYd+7rk5wHV1ZWipGm3+/HddddhyuuuAJVVVX413/9V1x99dU4/fTTxXM07pJp6dKlCIfDyGQy4t3nzZuH8847L2eNrqKiApMnT855X7/fj89+9rM466yzxDs5joPGxkYYhoEFCxagoqJC5Kect5Der6KiAitWrBCWmG40vq3jnnvuwRlnnJFzTVVVFf7t3/4NEydOFGbrlI8+fjAmGcjI1s+OdKK0DOMm9WeccQY0Lhf0zgG+L/hf/uVf8P73vx8BbulIcVDeEpokq/SueoRvWgMvUHcCRgtKrMPnR7/xjW9g0aJFngUyUmiahtbWVuGd4L2IW2jc+Hw+fPzjH8e1117bS4GNZtm4ocpGe16GGo2bN5PnhhMNTVqv6a/MZQLSHsJCKPQ6Qr5elinDMHDllVfiwx/+cK8RtZx+kkUKkxtE8I7NxRdfLAxHqDGV73XLsc6t7uhImUgkgjB3EED3McZQXV2NBQsWIBKJ4KKLLhLeTHx8PyFd5/P5cMopp4jN3zSFpksKmTGGk08+Geeeey42btwoFKI7rfK7UbonTJiA73//+5g9e7b4zY3O987SOhsRCoVw/fXX495778UNN9yAkLRvjkZcBh81ffvb38acOXN6jcRkKJzeX64v9Nupp56KiRMnQudrX/Se9IGrY0P3apr2//eBUUChgjzUOHnMqSldH/jAB1BbW5vzAiMN4/PF/U21vNehho+ghuJ4ghowL5kaCjTpyPYTEXe+uP8/Vii+QuXCXa/l+0m+vD66ZLHGpL1LNCKQ66rDDTi+8Y1vYMaMGTC56zxSRLKCKARKmyz/9IzbbrsNixcvFoYJcNWTkpISseeMPvQ+wWAQCxcuxPnnn48zzzwTpmniiiuuwHnnnSdmf+haJu3dlWXxWNqosrIyrFixAvPmzYOPG6LIo1pwRXfeeeeJjdq65B2F0gf+zvRuUcnRMqS2nfKloqIC55xzjkgHPU8uf4LKWZcLfSCFN5QEg8Ec7wD5kF98tKAFTMX/h4RrNMtlNHCvsZxIyI3pcKFJU4n9Qb1vcvJMDWV/9+vcwfa4cePE8+hD70hxgSupuro6hEIhlJeXo7a2Nqdxpuvle/KhSZuB5edomobx48fDz91Xye2WnO/uZ1AdIld+5F7L7/djwYIF4mgW+Xq57R4OWdT4GiFZa+bLGy8lQ+Hgin369OnCZZRcrprkVoz2CLrLwR03/a+b/Pyb0ULTNJx22mm46qqrPF3OuBM+mmjccaZ7D9V7ARKYwSJX1OMBWXaGI12MsRPaiGMk0PJMK7lhvBP98Y9/HGeeeaZnQyUjlyvFL09jucPkRpAaTp/Ph0svvRT//M//LDajy8qlEHSX93b6636+PGOhSa64CGqo6dl+vx+zZ88W64wUD/2lD6WB7h3oCLIQAoEArrrqKsyZMwfRaBTTp0/3XPeNRCKora11Bws0PgKrrq7O6wzCnWdwKXn5u3j/c889l+zpxY8jiWEYOOWUU3DBBRcgJJ2Vk0/zjiaO46Curg5+vlHyWBr845HB5rNcqQYbx4lIWVlZn8YMxQ7JQn8yQfWosrJSzHBQw9wffckcNez5fp82bRpmzZoFH/dvWVNTk2Mi3h+Mn0+m8+kzSjeRL45CRkrUvsgWvxpv4GkLgNxWyu3lUFJSUoKbbroJM2bMwNSpU3HppZcKv6iQnr148WIsW7bM8/lUBjr3vvL5z38eBt8LJl8jf2d8apd8v9JzZJnQNA36HXfcgfPPP19kzmhAAuTulRxv6LqO1tbW93Sv20sAC4Eq2GDvPxHp7u4+YT1xUFlReQ1XuZFc9FWfNW66Lrs7svlJzH3dBx6/vO4ivwe5V9J440lKhq6RFeW4cePwzW9+E7NmzSooLwzDwOLFi4WpPTyUKb23O23udMhplOOS46F06tzo4eyzzxYdaRSgrAeLzp1OG3w9MeixD9bgDpf72rpE76Zx11zvf//7xbSvFxp3Q3frrbeKLRuykqb79KqqKs9EjQZywuj7cBTKsRDiHtYxjJV+pKEKokt+7QpF7gkWGye6Qc9w161C445EIvje976Hiy++WBhUkHn1smXLelkdEoaH0QD4cyORCO655x5cfPHFor7qXIm5e/Ea3791/vnne27w9yIYDOK6667D+9///l4GDvlwt29yuBcBfrDtSSedlGNwsmLFClxxxRW9RnLufBgK3PExaVM3oRW4bkh1pby8HN/+9rcxf/78nPwo4aczMOnE98WLF+eUmTwtzBj7hxUiReBOrCIXxl1JwaNgT2Q0TcM555yDq6++OserwkB4L+VHofgk560nGlTfA4EAampq8m5uP1YKidPn8+G0007D+PHjRVggEMCHPvQhnHbaaTnXEhMmTMC1114rTjUmqLHz+/244IILMH36dNHgEf01tIUSjUaF+yWv96Qw92jLPVigsqBRFqHzDca0n4uuKykp6eX2y+v5o0G+vNVdx7OMHz9ejKwAoLq6Gvfffz8WL14s1gjlPKOPj58OUMaPBhKeOI6XDDie0bgRR75COlHRdR0nn3wyli1bNuiGbDD3nOjQKdknMhMnTsTXv/51cYrwUDKQ+LyujXAP724YY6irq8OHP/xhcbI39cjdbZlbcQ1X3XUrJRn6jZ7tpajkxlz+zTD+X3v3sts0E4YB+LWdOKFqaJ0egIpCkVqpooKWclAWRUKiVGwItBIC1AUgsaACseEKgA2XwNVwBVwGm56ANqQkJPH8i99jXDcHTxs7TvI+EgucpLYTez7P+PM3BpaWljA3N3dkHd622/9aux03TsjPTE5OYnl5uWG5slQqhfn5eXe+O3g+62VZFr58+YIbN24AAHtgquTVkL8b3c3kCSCvjigY73Qy3UY25plMBteuXTt2z7sZ7QSp3d4G039MyuO1XmFt7//rfTYscpvqrc+/TadOncLo6Kh7DyuTyeDy5ctHAhucnuirV6/cPAX5uvz95Dqj3Fcvuc5G2yAvKhYXF/H06VNYlnXkPc2MjIxgZWXF3fdkMonp6el/PTD5RpU/2q+EENjc3HQPHPqf9+D1n4C9rJsrccC5n6DXqTzRLmH+bUnzBA7/v6jJdfrPAf+25HI5PH/+HNlsFtVqFZlMBtPT04feI2mee0PevyMDWFT72mw9zV6D5/vw70Mruq4jm83i2bNnh75T+TcSicS/ABZXKjscNnkw9aJWB2EjmnOVLcet/SdvL0s5BWW73XF+9zjw9kJakcd3o15SmGzbhmma+PTpEzRnOG1+ft4drrebzJogt9v7r9vINkL+Xq3I98v9nZ2dxfr6OsbHxw/tv2ma/wJYJ37YVuL2g4mYzgfWSbqu4+bNm3jx4kXD8e1e1c2VOAYGBvDhw4eGz+50A9k+eHt6rdqMsC6y6vUQvHRddwtge9XbXv//40B+z/7tlfvdapv9n2tmdnYWa2trbsLc9PQ0VldXDz1/BrlNQTegU8I64I5D69EkjpMwDAMzMzNYWlpya7v1i2Kx2HLairhKOHNZXbp0KbbnvgrN9xyr/xyV/w/r+PQ28H6y8Zbrlj0ub49Efq7e5+NC7od/G+W+Belh+T9bTzabdUtxwWljZG/Vv/7Y3wOL23b1YhLHSdV7EL0fDA0NdW0lDt2pMN7tv5kMBLquY3x8HGtrazh37lzk+9UqgDViGAZqtZr7nlYBoJOa7Uc72bYduFxftL9ylxNCYGtry735Tf2t25M4eoG3wb9w4QLevn2LycnJyBpbr0brPNRj8AU5TdMwNTWFwcFBlMvlpvfDgohzAAwDW2EFQoieTeIgdd18DyxscqjHP99UOyUSCczOzuL69etuBYe4XVj6hwi9NKfy/MePH/HmzRu8f/++4SSUzcjvWU5A2U/Uvqk+p3smZiMyTbPug7b0f3Df2NjA48ePkXQmPm03wzCQz+eRz+dDW8dJJRKJQ+XnZHCS25pOp7GwsIC5uTnkcjm3socKXdexuLiIBw8eHJnRo9PkhUxQWpOh2HoYwBT9+PGj77rpVF+xWESpVPIvJieALSwsBC6OexyapsGyLFiWpdxriYKmaZibm8PKyoo7chPGd6E7syuPjY2FPiLQaPsbBSpd15UTnfxBvpn4/eoecqrtk4wJt5uc8ppBjGQSR5Dsq37UqFHrBOGZbyuqbdKd2aLz+fyhnlW7j5Xh4WHcunULo6Ojoe1bs+HZZutMp9O4d+8eJiYmmr6vniDfU/0tioFEIoHV1VWsrq4eq1sdBtu2sbW1dShriPpXN0+n0o/K5fKhQBYFwzAOPfAuG+UgjXMQmqbh7NmzyOVyoQ8fNrsgabTcsix8/vwZV65cafiek4htANN1HXfv3m06nUInMImDJNM03XsvYZyc1D6maWJjYwP5fD70YbYoyPtEssJ7XBmGgUwmo7yNQc+n2AawONKdqtFBv1zqbclkkkkcXSKZTGJ5eRkLCwsdPX8HBgbaknAinCLAa2trgEKD30lBt1HlgpABTNHu7m7buv/U3ZjE0X2iHkL0GhwcxJMnTzA1NaXcI/HTnKr26+vrSDgTasZZWN+5rjlpi8PDw7GZmTnOmMRBUiaT6drpVPqNvKpXubpvN8uy8Pr1a1y8eNH/0rHozpQynQzK7SSEQK1WQ6VSCZy4p8N5gv3du3eYmpqCHqPag3Fj2za2t7eZxEEAgEKhwEocFJjsNZ209+Ulg1cvtEeapmFmZgYPHz48Uri3ER1OGubt27eRzWaBELt7vSAuGZHUeazEQZL34VsR4WMVvRTAAODq1at4+fLlkalTGuF4oQKZxMFeKsEJYKZp+hdTH5qYmMD9+/cxNjbmf4kUqSRGMYAp2t3dRbVaDXR1QL3t4OAA5XLZv5j60MTEBB49eoSRkZFI2wYhBKrVauB7Rr2GAUyRTOIgYhIHSZlMBufPn4+8bTh9+jRyuRzGxsZCC5xCCBiGAd2ZONQ7+iSEcKe0QQduP2mCY2GB2baNzc1NnDlzpqfGnUmdEAK/fv1CKpXifVHCwcEB/vz5A8uy3HYhivahWq3i58+fGB4eRiKRCG2d379/x7dv39xcCbmeWq2Gr1+/AgDu3LkTedEJBjAFtm1jf38fQ0NDoR0o1B2EECgWi261cepvlUoFpVIJg4OD7rJeayOC9LJkUklUOISoQD53QQSnPBGTOAieBC8oVpLoJkH2q9Xr7cYApmhnZwe1Ws2/mPpQsVhkEgcBAP7+/YtCoeBfTCHjEKKiarUKwzAiv9KgeBFO1QAeCySxbYgee2AKbNvGzs5OpA8qUnyxEgdJpVIJe3t7/sUUMgYwRel0OtBYMPU+0zSVHrqk3qVpWluqzJMaBjAFTOIgr2QyGXnaMMVTMplkNmoHMIApYhIHScVikTMyE+AMIRYKBd5aiBiTOBTxRi3Bk8QhqxNQf5MVKTRneiqKBr9pBUziIK9CocAJLQlgEkfHMIApkuPc7IFRMplkEgcBAAzDgGmabBcixgCmQCZx8CAlOFmITOIgOFOAsCpL9BjAFDGJg6Tfv38ziYMAAOVyGfv7+/7FFDImcShiEgeBSRzkw8osncEzT4FM4oCnMjP1LyZxkFQqldgD6wAGMEXpdDryKQMonpjEQZJhGKHOx0X1cQhRUblcZrYRQThTubPRIqlSqfB4iBh7YAps28b29jaTOAhwhhCZxEFwqrLs7e3x1kLE2ANTIIRApVKBYRgwDMP/MvURJnGQn0zioOjwzFMghMDu7i6vsghgEgd5lMtlTmjZAQxgCjRNw8DAAMe4CWASB3lozhRLvLiNFgOYAk3T3PnAiFKpFKsvEOBczHCqpegxgCna2dmBbdv+xdSHCoUCisWifzH1ITmdCkXrPyEoVclnyhFfAAAAAElFTkSuQmCC;fontFamily=Times New Roman;fontSize=17;container=0;" parent="1" vertex="1">
          <mxGeometry x="-240.82" y="220" width="67.5" height="51.25" as="geometry" />
        </mxCell>
      </root>
    </mxGraphModel>
  </diagram>
</mxfile>
